<svg xmlns="http://www.w3.org/2000/svg" xmlns:xlink="http://www.w3.org/1999/xlink" xmlns:inkscape="http://www.inkscape.org/namespaces/inkscape" version="1.1" width="1065.6" height="269.35664" viewBox="0 0 1065.6 269.35664">
<defs>
<clipPath id="clip_1">
<path transform="matrix(1,0,0,-1,0,269.35664)" d="M54.23953 29.240788H1062V231.7128H54.23953Z"/>
</clipPath>
<clipPath id="clip_2">
<path transform="matrix(1,0,0,-1,0,269.35664)" d="M54.23953 29.240788H1062V231.7128H54.23953Z"/>
</clipPath>
<clipPath id="clip_3">
<path transform="matrix(1,0,0,-1,0,269.35664)" d="M54.23953 29.240788H1062V231.7128H54.23953Z"/>
</clipPath>
<clipPath id="clip_4">
<path transform="matrix(1,0,0,-1,0,269.35664)" d="M54.23953 29.240788H1062V231.7128H54.23953Z"/>
</clipPath>
<clipPath id="clip_5">
<path transform="matrix(1,0,0,-1,0,269.35664)" d="M54.23953 29.240788H1062V231.7128H54.23953Z"/>
</clipPath>
<clipPath id="clip_6">
<path transform="matrix(1,0,0,-1,0,269.35664)" d="M54.23953 29.240788H1062V231.7128H54.23953Z"/>
</clipPath>
<clipPath id="clip_7">
<path transform="matrix(1,0,0,-1,0,269.35664)" d="M54.23953 29.240788H1062V231.7128H54.23953Z"/>
</clipPath>
<clipPath id="clip_8">
<path transform="matrix(1,0,0,-1,0,269.35664)" d="M54.23953 29.240788H1062V231.7128H54.23953Z"/>
</clipPath>
<clipPath id="clip_9">
<path transform="matrix(1,0,0,-1,0,269.35664)" d="M54.23953 29.240788H1062V231.7128H54.23953Z"/>
</clipPath>
<clipPath id="clip_10">
<path transform="matrix(1,0,0,-1,0,269.35664)" d="M54.23953 29.240788H1062V231.7128H54.23953Z"/>
</clipPath>
<clipPath id="clip_11">
<path transform="matrix(1,0,0,-1,0,269.35664)" d="M54.23953 29.240788H1062V231.7128H54.23953Z"/>
</clipPath>
<clipPath id="clip_12">
<path transform="matrix(1,0,0,-1,0,269.35664)" d="M54.23953 29.240788H1062V231.7128H54.23953Z"/>
</clipPath>
<clipPath id="clip_13">
<path transform="matrix(1,0,0,-1,0,269.35664)" d="M54.23953 29.240788H1062V231.7128H54.23953Z"/>
</clipPath>
<clipPath id="clip_14">
<path transform="matrix(1,0,0,-1,0,269.35664)" d="M54.23953 29.240788H1062V231.7128H54.23953Z"/>
</clipPath>
<clipPath id="clip_15">
<path transform="matrix(1,0,0,-1,0,269.35664)" d="M54.23953 29.240788H1062V231.7128H54.23953Z"/>
</clipPath>
<clipPath id="clip_16">
<path transform="matrix(1,0,0,-1,0,269.35664)" d="M54.23953 29.240788H1062V231.7128H54.23953Z"/>
</clipPath>
<clipPath id="clip_17">
<path transform="matrix(1,0,0,-1,0,269.35664)" d="M54.23953 29.240788H1062V231.7128H54.23953Z"/>
</clipPath>
<clipPath id="clip_18">
<path transform="matrix(1,0,0,-1,0,269.35664)" d="M54.23953 29.240788H1062V231.7128H54.23953Z"/>
</clipPath>
<clipPath id="clip_19">
<path transform="matrix(1,0,0,-1,0,269.35664)" d="M54.23953 29.240788H1062V231.7128H54.23953Z"/>
</clipPath>
<clipPath id="clip_20">
<path transform="matrix(1,0,0,-1,0,269.35664)" d="M54.23953 29.240788H1062V231.7128H54.23953Z"/>
</clipPath>
<clipPath id="clip_21">
<path transform="matrix(1,0,0,-1,0,269.35664)" d="M54.23953 29.240788H1062V231.7128H54.23953Z"/>
</clipPath>
<clipPath id="clip_22">
<path transform="matrix(1,0,0,-1,0,269.35664)" d="M54.23953 29.240788H1062V231.7128H54.23953Z"/>
</clipPath>
<clipPath id="clip_23">
<path transform="matrix(1,0,0,-1,0,269.35664)" d="M54.23953 29.240788H1062V231.7128H54.23953Z"/>
</clipPath>
<clipPath id="clip_24">
<path transform="matrix(1,0,0,-1,0,269.35664)" d="M54.23953 29.240788H1062V231.7128H54.23953Z"/>
</clipPath>
<clipPath id="clip_25">
<path transform="matrix(1,0,0,-1,0,269.35664)" d="M54.23953 29.240788H1062V231.7128H54.23953Z"/>
</clipPath>
<clipPath id="clip_26">
<path transform="matrix(1,0,0,-1,0,269.35664)" d="M54.23953 29.240788H1062V231.7128H54.23953Z"/>
</clipPath>
<clipPath id="clip_27">
<path transform="matrix(1,0,0,-1,0,269.35664)" d="M54.23953 29.240788H1062V231.7128H54.23953Z"/>
</clipPath>
<clipPath id="clip_28">
<path transform="matrix(1,0,0,-1,0,269.35664)" d="M54.23953 29.240788H1062V231.7128H54.23953Z"/>
</clipPath>
<clipPath id="clip_29">
<path transform="matrix(1,0,0,-1,0,269.35664)" d="M54.23953 29.240788H1062V231.7128H54.23953Z"/>
</clipPath>
<clipPath id="clip_30">
<path transform="matrix(1,0,0,-1,0,269.35664)" d="M54.23953 29.240788H1062V231.7128H54.23953Z"/>
</clipPath>
<clipPath id="clip_31">
<path transform="matrix(1,0,0,-1,0,269.35664)" d="M54.23953 29.240788H1062V231.7128H54.23953Z"/>
</clipPath>
<clipPath id="clip_32">
<path transform="matrix(1,0,0,-1,0,269.35664)" d="M54.23953 29.240788H1062V231.7128H54.23953Z"/>
</clipPath>
<clipPath id="clip_33">
<path transform="matrix(1,0,0,-1,0,269.35664)" d="M54.23953 29.240788H1062V231.7128H54.23953Z"/>
</clipPath>
<clipPath id="clip_34">
<path transform="matrix(1,0,0,-1,0,269.35664)" d="M54.23953 29.240788H1062V231.7128H54.23953Z"/>
</clipPath>
<clipPath id="clip_35">
<path transform="matrix(1,0,0,-1,0,269.35664)" d="M54.23953 29.240788H1062V231.7128H54.23953Z"/>
</clipPath>
<clipPath id="clip_36">
<path transform="matrix(1,0,0,-1,0,269.35664)" d="M54.23953 29.240788H1062V231.7128H54.23953Z"/>
</clipPath>
<clipPath id="clip_37">
<path transform="matrix(1,0,0,-1,0,269.35664)" d="M54.23953 29.240788H1062V231.7128H54.23953Z"/>
</clipPath>
<clipPath id="clip_38">
<path transform="matrix(1,0,0,-1,0,269.35664)" d="M54.23953 29.240788H1062V231.7128H54.23953Z"/>
</clipPath>
<clipPath id="clip_39">
<path transform="matrix(1,0,0,-1,0,269.35664)" d="M54.23953 29.240788H1062V231.7128H54.23953Z"/>
</clipPath>
<clipPath id="clip_40">
<path transform="matrix(1,0,0,-1,0,269.35664)" d="M54.23953 29.240788H1062V231.7128H54.23953Z"/>
</clipPath>
<clipPath id="clip_41">
<path transform="matrix(1,0,0,-1,0,269.35664)" d="M54.23953 29.240788H1062V231.7128H54.23953Z"/>
</clipPath>
<clipPath id="clip_42">
<path transform="matrix(1,0,0,-1,0,269.35664)" d="M54.23953 29.240788H1062V231.7128H54.23953Z"/>
</clipPath>
<clipPath id="clip_43">
<path transform="matrix(1,0,0,-1,0,269.35664)" d="M54.23953 29.240788H1062V231.7128H54.23953Z"/>
</clipPath>
<clipPath id="clip_44">
<path transform="matrix(1,0,0,-1,0,269.35664)" d="M54.23953 29.240788H1062V231.7128H54.23953Z"/>
</clipPath>
<clipPath id="clip_45">
<path transform="matrix(1,0,0,-1,0,269.35664)" d="M54.23953 29.240788H1062V231.7128H54.23953Z"/>
</clipPath>
<clipPath id="clip_46">
<path transform="matrix(1,0,0,-1,0,269.35664)" d="M54.23953 29.240788H1062V231.7128H54.23953Z"/>
</clipPath>
<clipPath id="clip_47">
<path transform="matrix(1,0,0,-1,0,269.35664)" d="M54.23953 29.240788H1062V231.7128H54.23953Z"/>
</clipPath>
<clipPath id="clip_48">
<path transform="matrix(1,0,0,-1,0,269.35664)" d="M54.23953 29.240788H1062V231.7128H54.23953Z"/>
</clipPath>
<clipPath id="clip_49">
<path transform="matrix(1,0,0,-1,0,269.35664)" d="M54.23953 29.240788H1062V231.7128H54.23953Z"/>
</clipPath>
<clipPath id="clip_50">
<path transform="matrix(1,0,0,-1,0,269.35664)" d="M54.23953 29.240788H1062V231.7128H54.23953Z"/>
</clipPath>
<clipPath id="clip_51">
<path transform="matrix(1,0,0,-1,0,269.35664)" d="M54.23953 29.240788H1062V231.7128H54.23953Z"/>
</clipPath>
<clipPath id="clip_52">
<path transform="matrix(1,0,0,-1,0,269.35664)" d="M54.23953 29.240788H1062V231.7128H54.23953Z"/>
</clipPath>
<clipPath id="clip_53">
<path transform="matrix(1,0,0,-1,0,269.35664)" d="M54.23953 29.240788H1062V231.7128H54.23953Z"/>
</clipPath>
<clipPath id="clip_54">
<path transform="matrix(1,0,0,-1,0,269.35664)" d="M54.23953 29.240788H1062V231.7128H54.23953Z"/>
</clipPath>
<clipPath id="clip_55">
<path transform="matrix(1,0,0,-1,0,269.35664)" d="M54.23953 29.240788H1062V231.7128H54.23953Z"/>
</clipPath>
<clipPath id="clip_56">
<path transform="matrix(1,0,0,-1,0,269.35664)" d="M54.23953 29.240788H1062V231.7128H54.23953Z"/>
</clipPath>
<clipPath id="clip_57">
<path transform="matrix(1,0,0,-1,0,269.35664)" d="M54.23953 29.240788H1062V231.7128H54.23953Z"/>
</clipPath>
<clipPath id="clip_58">
<path transform="matrix(1,0,0,-1,0,269.35664)" d="M54.23953 29.240788H1062V231.7128H54.23953Z"/>
</clipPath>
<clipPath id="clip_59">
<path transform="matrix(1,0,0,-1,0,269.35664)" d="M54.23953 29.240788H1062V231.7128H54.23953Z"/>
</clipPath>
<clipPath id="clip_60">
<path transform="matrix(1,0,0,-1,0,269.35664)" d="M54.23953 29.240788H1062V231.7128H54.23953Z"/>
</clipPath>
<clipPath id="clip_61">
<path transform="matrix(1,0,0,-1,0,269.35664)" d="M54.23953 29.240788H1062V231.7128H54.23953Z"/>
</clipPath>
<clipPath id="clip_62">
<path transform="matrix(1,0,0,-1,0,269.35664)" d="M54.23953 29.240788H1062V231.7128H54.23953Z"/>
</clipPath>
<clipPath id="clip_63">
<path transform="matrix(1,0,0,-1,0,269.35664)" d="M54.23953 29.240788H1062V231.7128H54.23953Z"/>
</clipPath>
<clipPath id="clip_64">
<path transform="matrix(1,0,0,-1,0,269.35664)" d="M54.23953 29.240788H1062V231.7128H54.23953Z"/>
</clipPath>
<clipPath id="clip_65">
<path transform="matrix(1,0,0,-1,0,269.35664)" d="M54.23953 29.240788H1062V231.7128H54.23953Z"/>
</clipPath>
<clipPath id="clip_66">
<path transform="matrix(1,0,0,-1,0,269.35664)" d="M54.23953 29.240788H1062V231.7128H54.23953Z"/>
</clipPath>
<clipPath id="clip_67">
<path transform="matrix(1,0,0,-1,0,269.35664)" d="M54.23953 29.240788H1062V231.7128H54.23953Z"/>
</clipPath>
<clipPath id="clip_68">
<path transform="matrix(1,0,0,-1,0,269.35664)" d="M54.23953 29.240788H1062V231.7128H54.23953Z"/>
</clipPath>
<clipPath id="clip_69">
<path transform="matrix(1,0,0,-1,0,269.35664)" d="M54.23953 29.240788H1062V231.7128H54.23953Z"/>
</clipPath>
<clipPath id="clip_70">
<path transform="matrix(1,0,0,-1,0,269.35664)" d="M54.23953 29.240788H1062V231.7128H54.23953Z"/>
</clipPath>
<clipPath id="clip_71">
<path transform="matrix(1,0,0,-1,0,269.35664)" d="M54.23953 29.240788H1062V231.7128H54.23953Z"/>
</clipPath>
<clipPath id="clip_72">
<path transform="matrix(1,0,0,-1,0,269.35664)" d="M54.23953 29.240788H1062V231.7128H54.23953Z"/>
</clipPath>
<clipPath id="clip_73">
<path transform="matrix(1,0,0,-1,0,269.35664)" d="M54.23953 29.240788H1062V231.7128H54.23953Z"/>
</clipPath>
<clipPath id="clip_74">
<path transform="matrix(1,0,0,-1,0,269.35664)" d="M54.23953 29.240788H1062V231.7128H54.23953Z"/>
</clipPath>
<clipPath id="clip_75">
<path transform="matrix(1,0,0,-1,0,269.35664)" d="M54.23953 29.240788H1062V231.7128H54.23953Z"/>
</clipPath>
<clipPath id="clip_76">
<path transform="matrix(1,0,0,-1,0,269.35664)" d="M54.23953 29.240788H1062V231.7128H54.23953Z"/>
</clipPath>
<clipPath id="clip_77">
<path transform="matrix(1,0,0,-1,0,269.35664)" d="M54.23953 29.240788H1062V231.7128H54.23953Z"/>
</clipPath>
<clipPath id="clip_78">
<path transform="matrix(1,0,0,-1,0,269.35664)" d="M54.23953 29.240788H1062V231.7128H54.23953Z"/>
</clipPath>
<clipPath id="clip_79">
<path transform="matrix(1,0,0,-1,0,269.35664)" d="M54.23953 29.240788H1062V231.7128H54.23953Z"/>
</clipPath>
<clipPath id="clip_80">
<path transform="matrix(1,0,0,-1,0,269.35664)" d="M54.23953 29.240788H1062V231.7128H54.23953Z"/>
</clipPath>
<clipPath id="clip_81">
<path transform="matrix(1,0,0,-1,0,269.35664)" d="M54.23953 29.240788H1062V231.7128H54.23953Z"/>
</clipPath>
<clipPath id="clip_82">
<path transform="matrix(1,0,0,-1,0,269.35664)" d="M54.23953 29.240788H1062V231.7128H54.23953Z"/>
</clipPath>
<clipPath id="clip_83">
<path transform="matrix(1,0,0,-1,0,269.35664)" d="M54.23953 29.240788H1062V231.7128H54.23953Z"/>
</clipPath>
<clipPath id="clip_84">
<path transform="matrix(1,0,0,-1,0,269.35664)" d="M54.23953 29.240788H1062V231.7128H54.23953Z"/>
</clipPath>
<clipPath id="clip_85">
<path transform="matrix(1,0,0,-1,0,269.35664)" d="M54.23953 29.240788H1062V231.7128H54.23953Z"/>
</clipPath>
<clipPath id="clip_86">
<path transform="matrix(1,0,0,-1,0,269.35664)" d="M54.23953 29.240788H1062V231.7128H54.23953Z"/>
</clipPath>
<clipPath id="clip_87">
<path transform="matrix(1,0,0,-1,0,269.35664)" d="M54.23953 29.240788H1062V231.7128H54.23953Z"/>
</clipPath>
<clipPath id="clip_88">
<path transform="matrix(1,0,0,-1,0,269.35664)" d="M54.23953 29.240788H1062V231.7128H54.23953Z"/>
</clipPath>
<clipPath id="clip_89">
<path transform="matrix(1,0,0,-1,0,269.35664)" d="M54.23953 29.240788H1062V231.7128H54.23953Z"/>
</clipPath>
<clipPath id="clip_90">
<path transform="matrix(1,0,0,-1,0,269.35664)" d="M54.23953 29.240788H1062V231.7128H54.23953Z"/>
</clipPath>
<clipPath id="clip_91">
<path transform="matrix(1,0,0,-1,0,269.35664)" d="M54.23953 29.240788H1062V231.7128H54.23953Z"/>
</clipPath>
<clipPath id="clip_92">
<path transform="matrix(1,0,0,-1,0,269.35664)" d="M54.23953 29.240788H1062V231.7128H54.23953Z"/>
</clipPath>
<clipPath id="clip_93">
<path transform="matrix(1,0,0,-1,0,269.35664)" d="M54.23953 29.240788H1062V231.7128H54.23953Z"/>
</clipPath>
<clipPath id="clip_94">
<path transform="matrix(1,0,0,-1,0,269.35664)" d="M54.23953 29.240788H1062V231.7128H54.23953Z"/>
</clipPath>
<clipPath id="clip_95">
<path transform="matrix(1,0,0,-1,0,269.35664)" d="M54.23953 29.240788H1062V231.7128H54.23953Z"/>
</clipPath>
<clipPath id="clip_96">
<path transform="matrix(1,0,0,-1,0,269.35664)" d="M54.23953 29.240788H1062V231.7128H54.23953Z"/>
</clipPath>
<clipPath id="clip_97">
<path transform="matrix(1,0,0,-1,0,269.35664)" d="M54.23953 29.240788H1062V231.7128H54.23953Z"/>
</clipPath>
<clipPath id="clip_98">
<path transform="matrix(1,0,0,-1,0,269.35664)" d="M54.23953 29.240788H1062V231.7128H54.23953Z"/>
</clipPath>
<clipPath id="clip_99">
<path transform="matrix(1,0,0,-1,0,269.35664)" d="M54.23953 29.240788H1062V231.7128H54.23953Z"/>
</clipPath>
<clipPath id="clip_100">
<path transform="matrix(1,0,0,-1,0,269.35664)" d="M54.23953 29.240788H1062V231.7128H54.23953Z"/>
</clipPath>
<clipPath id="clip_101">
<path transform="matrix(1,0,0,-1,0,269.35664)" d="M54.23953 29.240788H1062V231.7128H54.23953Z"/>
</clipPath>
<clipPath id="clip_102">
<path transform="matrix(1,0,0,-1,0,269.35664)" d="M54.23953 29.240788H1062V231.7128H54.23953Z"/>
</clipPath>
<clipPath id="clip_103">
<path transform="matrix(1,0,0,-1,0,269.35664)" d="M54.23953 29.240788H1062V231.7128H54.23953Z"/>
</clipPath>
<clipPath id="clip_104">
<path transform="matrix(1,0,0,-1,0,269.35664)" d="M54.23953 29.240788H1062V231.7128H54.23953Z"/>
</clipPath>
<clipPath id="clip_105">
<path transform="matrix(1,0,0,-1,0,269.35664)" d="M54.23953 29.240788H1062V231.7128H54.23953Z"/>
</clipPath>
<clipPath id="clip_106">
<path transform="matrix(1,0,0,-1,0,269.35664)" d="M54.23953 29.240788H1062V231.7128H54.23953Z"/>
</clipPath>
<clipPath id="clip_107">
<path transform="matrix(1,0,0,-1,0,269.35664)" d="M54.23953 29.240788H1062V231.7128H54.23953Z"/>
</clipPath>
<clipPath id="clip_108">
<path transform="matrix(1,0,0,-1,0,269.35664)" d="M54.23953 29.240788H1062V231.7128H54.23953Z"/>
</clipPath>
<clipPath id="clip_109">
<path transform="matrix(1,0,0,-1,0,269.35664)" d="M54.23953 29.240788H1062V231.7128H54.23953Z"/>
</clipPath>
</defs>
<path transform="matrix(1,0,0,-1,0,269.35664)" d="M0 0H1065.6V269.35664H0Z" fill="#ffffff"/>
<path transform="matrix(1,0,0,-1,0,269.35664)" d="M54.23953 29.240788H1062V231.7128H54.23953Z" fill="#ffffff"/>
<g clip-path="url(#clip_1)">
<path transform="matrix(1,0,0,-1,0,269.35664)" d="M100.04682 5.420551H128.1741V217.93595H100.04682Z" fill="#1f5c92"/>
<path transform="matrix(1,0,0,-1,0,269.35664)" stroke-width="1" stroke-linecap="butt" stroke-miterlimit="10" stroke-linejoin="miter" fill="none" stroke="#000000" d="M100.04682 5.420551H128.1741V217.93595H100.04682Z"/>
</g>
<g clip-path="url(#clip_2)">
<path transform="matrix(1,0,0,-1,0,269.35664)" d="M260.77418 5.420551H288.90147V153.62192H260.77418Z" fill="#1f5c92"/>
<path transform="matrix(1,0,0,-1,0,269.35664)" stroke-width="1" stroke-linecap="butt" stroke-miterlimit="10" stroke-linejoin="miter" fill="none" stroke="#000000" d="M260.77418 5.420551H288.90147V153.62192H260.77418Z"/>
</g>
<g clip-path="url(#clip_3)">
<path transform="matrix(1,0,0,-1,0,269.35664)" d="M421.50154 5.420551H449.6288V133.66327H421.50154Z" fill="#1f5c92"/>
<path transform="matrix(1,0,0,-1,0,269.35664)" stroke-width="1" stroke-linecap="butt" stroke-miterlimit="10" stroke-linejoin="miter" fill="none" stroke="#000000" d="M421.50154 5.420551H449.6288V133.66327H421.50154Z"/>
</g>
<g clip-path="url(#clip_4)">
<path transform="matrix(1,0,0,-1,0,269.35664)" d="M582.2289 5.420551H610.35617V205.11354H582.2289Z" fill="#1f5c92"/>
<path transform="matrix(1,0,0,-1,0,269.35664)" stroke-width="1" stroke-linecap="butt" stroke-miterlimit="10" stroke-linejoin="miter" fill="none" stroke="#000000" d="M582.2289 5.420551H610.35617V205.11354H582.2289Z"/>
</g>
<g clip-path="url(#clip_5)">
<path transform="matrix(1,0,0,-1,0,269.35664)" d="M742.95626 5.420551H771.0835V184.07233H742.95626Z" fill="#1f5c92"/>
<path transform="matrix(1,0,0,-1,0,269.35664)" stroke-width="1" stroke-linecap="butt" stroke-miterlimit="10" stroke-linejoin="miter" fill="none" stroke="#000000" d="M742.95626 5.420551H771.0835V184.07233H742.95626Z"/>
</g>
<g clip-path="url(#clip_6)">
<path transform="matrix(1,0,0,-1,0,269.35664)" d="M903.68356 5.420551H931.81088V209.87758H903.68356Z" fill="#1f5c92"/>
<path transform="matrix(1,0,0,-1,0,269.35664)" stroke-width="1" stroke-linecap="butt" stroke-miterlimit="10" stroke-linejoin="miter" fill="none" stroke="#000000" d="M903.68356 5.420551H931.81088V209.87758H903.68356Z"/>
</g>
<g clip-path="url(#clip_7)">
<path transform="matrix(1,0,0,-1,0,269.35664)" d="M128.1741 5.420551H156.30139V203.51113H128.1741Z" fill="#17a24b"/>
<path transform="matrix(1,0,0,-1,0,269.35664)" stroke-width="1" stroke-linecap="butt" stroke-miterlimit="10" stroke-linejoin="miter" fill="none" stroke="#000000" d="M128.1741 5.420551H156.30139V203.51113H128.1741Z"/>
</g>
<g clip-path="url(#clip_8)">
<path transform="matrix(1,0,0,-1,0,269.35664)" d="M288.90147 5.420551H317.02876V125.549518H288.90147Z" fill="#17a24b"/>
<path transform="matrix(1,0,0,-1,0,269.35664)" stroke-width="1" stroke-linecap="butt" stroke-miterlimit="10" stroke-linejoin="miter" fill="none" stroke="#000000" d="M288.90147 5.420551H317.02876V125.549518H288.90147Z"/>
</g>
<g clip-path="url(#clip_9)">
<path transform="matrix(1,0,0,-1,0,269.35664)" d="M449.6288 5.420551H477.7561V82.47066H449.6288Z" fill="#17a24b"/>
<path transform="matrix(1,0,0,-1,0,269.35664)" stroke-width="1" stroke-linecap="butt" stroke-miterlimit="10" stroke-linejoin="miter" fill="none" stroke="#000000" d="M449.6288 5.420551H477.7561V82.47066H449.6288Z"/>
</g>
<g clip-path="url(#clip_10)">
<path transform="matrix(1,0,0,-1,0,269.35664)" d="M610.35617 5.420551H638.48348V178.11727H610.35617Z" fill="#17a24b"/>
<path transform="matrix(1,0,0,-1,0,269.35664)" stroke-width="1" stroke-linecap="butt" stroke-miterlimit="10" stroke-linejoin="miter" fill="none" stroke="#000000" d="M610.35617 5.420551H638.48348V178.11727H610.35617Z"/>
</g>
<g clip-path="url(#clip_11)">
<path transform="matrix(1,0,0,-1,0,269.35664)" d="M771.0835 5.420551H799.2108V158.34647H771.0835Z" fill="#17a24b"/>
<path transform="matrix(1,0,0,-1,0,269.35664)" stroke-width="1" stroke-linecap="butt" stroke-miterlimit="10" stroke-linejoin="miter" fill="none" stroke="#000000" d="M771.0835 5.420551H799.2108V158.34647H771.0835Z"/>
</g>
<g clip-path="url(#clip_12)">
<path transform="matrix(1,0,0,-1,0,269.35664)" d="M931.81088 5.420551H959.9381V188.59818H931.81088Z" fill="#17a24b"/>
<path transform="matrix(1,0,0,-1,0,269.35664)" stroke-width="1" stroke-linecap="butt" stroke-miterlimit="10" stroke-linejoin="miter" fill="none" stroke="#000000" d="M931.81088 5.420551H959.9381V188.59818H931.81088Z"/>
</g>
<g clip-path="url(#clip_13)">
<path transform="matrix(1,0,0,-1,0,269.35664)" d="M156.30139 5.420551H184.42868V201.8398H156.30139Z" fill="#df9020"/>
<path transform="matrix(1,0,0,-1,0,269.35664)" stroke-width="1" stroke-linecap="butt" stroke-miterlimit="10" stroke-linejoin="miter" fill="none" stroke="#000000" d="M156.30139 5.420551H184.42868V201.8398H156.30139Z"/>
</g>
<g clip-path="url(#clip_14)">
<path transform="matrix(1,0,0,-1,0,269.35664)" d="M317.02876 5.420551H345.15605V100.82241H317.02876Z" fill="#df9020"/>
<path transform="matrix(1,0,0,-1,0,269.35664)" stroke-width="1" stroke-linecap="butt" stroke-miterlimit="10" stroke-linejoin="miter" fill="none" stroke="#000000" d="M317.02876 5.420551H345.15605V100.82241H317.02876Z"/>
</g>
<g clip-path="url(#clip_15)">
<path transform="matrix(1,0,0,-1,0,269.35664)" d="M477.7561 5.420551H505.88337V66.53826H477.7561Z" fill="#df9020"/>
<path transform="matrix(1,0,0,-1,0,269.35664)" stroke-width="1" stroke-linecap="butt" stroke-miterlimit="10" stroke-linejoin="miter" fill="none" stroke="#000000" d="M477.7561 5.420551H505.88337V66.53826H477.7561Z"/>
</g>
<g clip-path="url(#clip_16)">
<path transform="matrix(1,0,0,-1,0,269.35664)" d="M638.48348 5.420551H666.6107V168.90677H638.48348Z" fill="#df9020"/>
<path transform="matrix(1,0,0,-1,0,269.35664)" stroke-width="1" stroke-linecap="butt" stroke-miterlimit="10" stroke-linejoin="miter" fill="none" stroke="#000000" d="M638.48348 5.420551H666.6107V168.90677H638.48348Z"/>
</g>
<g clip-path="url(#clip_17)">
<path transform="matrix(1,0,0,-1,0,269.35664)" d="M799.2108 5.420551H827.3381V154.05883H799.2108Z" fill="#df9020"/>
<path transform="matrix(1,0,0,-1,0,269.35664)" stroke-width="1" stroke-linecap="butt" stroke-miterlimit="10" stroke-linejoin="miter" fill="none" stroke="#000000" d="M799.2108 5.420551H827.3381V154.05883H799.2108Z"/>
</g>
<g clip-path="url(#clip_18)">
<path transform="matrix(1,0,0,-1,0,269.35664)" d="M959.9381 5.420551H988.0654V187.32776H959.9381Z" fill="#df9020"/>
<path transform="matrix(1,0,0,-1,0,269.35664)" stroke-width="1" stroke-linecap="butt" stroke-miterlimit="10" stroke-linejoin="miter" fill="none" stroke="#000000" d="M959.9381 5.420551H988.0654V187.32776H959.9381Z"/>
</g>
<g clip-path="url(#clip_19)">
<path transform="matrix(1,0,0,-1,0,269.35664)" d="M184.42868 5.420551H212.55597V194.48177H184.42868Z" fill="#df4120"/>
<path transform="matrix(1,0,0,-1,0,269.35664)" stroke-width="1" stroke-linecap="butt" stroke-miterlimit="10" stroke-linejoin="miter" fill="none" stroke="#000000" d="M184.42868 5.420551H212.55597V194.48177H184.42868Z"/>
</g>
<g clip-path="url(#clip_20)">
<path transform="matrix(1,0,0,-1,0,269.35664)" d="M345.15605 5.420551H373.28334V102.44038H345.15605Z" fill="#df4120"/>
<path transform="matrix(1,0,0,-1,0,269.35664)" stroke-width="1" stroke-linecap="butt" stroke-miterlimit="10" stroke-linejoin="miter" fill="none" stroke="#000000" d="M345.15605 5.420551H373.28334V102.44038H345.15605Z"/>
</g>
<g clip-path="url(#clip_21)">
<path transform="matrix(1,0,0,-1,0,269.35664)" d="M505.88337 5.420551H534.0107V63.399007H505.88337Z" fill="#df4120"/>
<path transform="matrix(1,0,0,-1,0,269.35664)" stroke-width="1" stroke-linecap="butt" stroke-miterlimit="10" stroke-linejoin="miter" fill="none" stroke="#000000" d="M505.88337 5.420551H534.0107V63.399007H505.88337Z"/>
</g>
<g clip-path="url(#clip_22)">
<path transform="matrix(1,0,0,-1,0,269.35664)" d="M666.6107 5.420551H694.73806V170.97119H666.6107Z" fill="#df4120"/>
<path transform="matrix(1,0,0,-1,0,269.35664)" stroke-width="1" stroke-linecap="butt" stroke-miterlimit="10" stroke-linejoin="miter" fill="none" stroke="#000000" d="M666.6107 5.420551H694.73806V170.97119H666.6107Z"/>
</g>
<g clip-path="url(#clip_23)">
<path transform="matrix(1,0,0,-1,0,269.35664)" d="M827.3381 5.420551H855.46536V152.77254H827.3381Z" fill="#df4120"/>
<path transform="matrix(1,0,0,-1,0,269.35664)" stroke-width="1" stroke-linecap="butt" stroke-miterlimit="10" stroke-linejoin="miter" fill="none" stroke="#000000" d="M827.3381 5.420551H855.46536V152.77254H827.3381Z"/>
</g>
<g clip-path="url(#clip_24)">
<path transform="matrix(1,0,0,-1,0,269.35664)" d="M988.0654 5.420551H1016.1927V185.97795H988.0654Z" fill="#df4120"/>
<path transform="matrix(1,0,0,-1,0,269.35664)" stroke-width="1" stroke-linecap="butt" stroke-miterlimit="10" stroke-linejoin="miter" fill="none" stroke="#000000" d="M988.0654 5.420551H1016.1927V185.97795H988.0654Z"/>
</g>
<g clip-path="url(#clip_25)">
<path transform="matrix(1,0,0,-1,0,269.35664)" d="M156.30139 5.420551V5.420551Z" fill="#1f5c92"/>
<path transform="matrix(1,0,0,-1,0,269.35664)" stroke-width="1" stroke-linecap="butt" stroke-miterlimit="10" stroke-linejoin="miter" fill="none" stroke="#000000" d="M156.30139 5.420551V5.420551Z"/>
</g>
<g clip-path="url(#clip_26)">
<path transform="matrix(1,0,0,-1,0,269.35664)" d="M156.30139 5.420551V5.420551Z" fill="#17a24b"/>
<path transform="matrix(1,0,0,-1,0,269.35664)" stroke-width="1" stroke-linecap="butt" stroke-miterlimit="10" stroke-linejoin="miter" fill="none" stroke="#000000" d="M156.30139 5.420551V5.420551Z"/>
</g>
<g clip-path="url(#clip_27)">
<path transform="matrix(1,0,0,-1,0,269.35664)" d="M156.30139 5.420551V5.420551Z" fill="#df9020"/>
<path transform="matrix(1,0,0,-1,0,269.35664)" stroke-width="1" stroke-linecap="butt" stroke-miterlimit="10" stroke-linejoin="miter" fill="none" stroke="#000000" d="M156.30139 5.420551V5.420551Z"/>
</g>
<g clip-path="url(#clip_28)">
<path transform="matrix(1,0,0,-1,0,269.35664)" d="M156.30139 5.420551V5.420551Z" fill="#df4120"/>
<path transform="matrix(1,0,0,-1,0,269.35664)" stroke-width="1" stroke-linecap="butt" stroke-miterlimit="10" stroke-linejoin="miter" fill="none" stroke="#000000" d="M156.30139 5.420551V5.420551Z"/>
</g>
<path transform="matrix(1,0,0,-1,0,269.35664)" d="M156.30139 29.240788V32.240789"/>
<path transform="matrix(1,0,0,-1,0,269.35664)" stroke-width=".5" stroke-linecap="butt" stroke-linejoin="round" fill="none" stroke="#000000" d="M156.30139 29.240788V32.240789"/>
<path transform="matrix(1,0,0,-1,0,269.35664)" d="M156.30139 231.7128V228.7128"/>
<path transform="matrix(1,0,0,-1,0,269.35664)" stroke-width=".5" stroke-linecap="butt" stroke-linejoin="round" fill="none" stroke="#000000" d="M156.30139 231.7128V228.7128"/>
<text xml:space="preserve" transform="matrix(1 0 -0 1 0 269.35664)" font-size="24.9066" font-family="Computer Modern"><tspan y="-8.444534" x="129.07704 146.33731 154.48177 165.88899">AI2D</tspan></text>
<path transform="matrix(1,0,0,-1,0,269.35664)" d="M317.02876 29.240788V32.240789"/>
<path transform="matrix(1,0,0,-1,0,269.35664)" stroke-width=".5" stroke-linecap="butt" stroke-linejoin="round" fill="none" stroke="#000000" d="M317.02876 29.240788V32.240789"/>
<path transform="matrix(1,0,0,-1,0,269.35664)" d="M317.02876 231.7128V228.7128"/>
<path transform="matrix(1,0,0,-1,0,269.35664)" stroke-width=".5" stroke-linecap="butt" stroke-linejoin="round" fill="none" stroke="#000000" d="M317.02876 231.7128V228.7128"/>
<text xml:space="preserve" transform="matrix(1 0 -0 1 0 269.35664)" font-size="24.9066" font-family="Computer Modern"><tspan y="-8.444534" x="263.29478 284.4654 295.87263 304.68955 317.3919 332.70039 342.81248 351.6294 360.57087">MathVerse</tspan></text>
<path transform="matrix(1,0,0,-1,0,269.35664)" d="M477.7561 29.240788V32.240789"/>
<path transform="matrix(1,0,0,-1,0,269.35664)" stroke-width=".5" stroke-linecap="butt" stroke-linejoin="round" fill="none" stroke="#000000" d="M477.7561 29.240788V32.240789"/>
<path transform="matrix(1,0,0,-1,0,269.35664)" d="M477.7561 231.7128V228.7128"/>
<path transform="matrix(1,0,0,-1,0,269.35664)" stroke-width=".5" stroke-linecap="butt" stroke-linejoin="round" fill="none" stroke="#000000" d="M477.7561 231.7128V228.7128"/>
<text xml:space="preserve" transform="matrix(1 0 -0 1 0 269.35664)" font-size="24.9066" font-family="Computer Modern"><tspan y="-8.444534" x="419.2867 440.45735 451.86457 460.6815 473.38386 490.64414 496.8459 505.78736 511.9891 523.3963">MathVision</tspan></text>
<path transform="matrix(1,0,0,-1,0,269.35664)" d="M638.48348 29.240788V32.240789"/>
<path transform="matrix(1,0,0,-1,0,269.35664)" stroke-width=".5" stroke-linecap="butt" stroke-linejoin="round" fill="none" stroke="#000000" d="M638.48348 29.240788V32.240789"/>
<path transform="matrix(1,0,0,-1,0,269.35664)" d="M638.48348 231.7128V228.7128"/>
<path transform="matrix(1,0,0,-1,0,269.35664)" stroke-width=".5" stroke-linecap="butt" stroke-linejoin="round" fill="none" stroke="#000000" d="M638.48348 231.7128V228.7128"/>
<text xml:space="preserve" transform="matrix(1 0 -0 1 0 269.35664)" font-size="24.9066" font-family="Computer Modern"><tspan y="-8.444534" x="585.07479 606.24539 617.6526 626.46957 639.17196 656.4322 662.6339 671.5754 680.39236">MathVista</tspan></text>
<path transform="matrix(1,0,0,-1,0,269.35664)" d="M799.2108 29.240788V32.240789"/>
<path transform="matrix(1,0,0,-1,0,269.35664)" stroke-width=".5" stroke-linecap="butt" stroke-linejoin="round" fill="none" stroke="#000000" d="M799.2108 29.240788V32.240789"/>
<path transform="matrix(1,0,0,-1,0,269.35664)" d="M799.2108 231.7128V228.7128"/>
<path transform="matrix(1,0,0,-1,0,269.35664)" stroke-width=".5" stroke-linecap="butt" stroke-linejoin="round" fill="none" stroke="#000000" d="M799.2108 231.7128V228.7128"/>
<text xml:space="preserve" transform="matrix(1 0 -0 1 0 269.35664)" font-size="24.9066" font-family="Computer Modern"><tspan y="-8.444534" x="757.1456 778.3162 799.4868 812.1892 821.00619 832.4134">MMStar</tspan></text>
<path transform="matrix(1,0,0,-1,0,269.35664)" d="M959.9381 29.240788V32.240789"/>
<path transform="matrix(1,0,0,-1,0,269.35664)" stroke-width=".5" stroke-linecap="butt" stroke-linejoin="round" fill="none" stroke="#000000" d="M959.9381 29.240788V32.240789"/>
<path transform="matrix(1,0,0,-1,0,269.35664)" d="M959.9381 231.7128V228.7128"/>
<path transform="matrix(1,0,0,-1,0,269.35664)" stroke-width=".5" stroke-linecap="butt" stroke-linejoin="round" fill="none" stroke="#000000" d="M959.9381 231.7128V228.7128"/>
<text xml:space="preserve" transform="matrix(1 0 -0 1 0 269.35664)" font-size="24.9066" font-family="Computer Modern"><tspan y="-8.444534" x="901.73599 918.9962 940.1668 956.77957 973.0685 983.18057 995.88296 1005.34439">VMCBench</tspan></text>
<path transform="matrix(1,0,0,-1,0,269.35664)" d="M59.864984 29.240788V30.740788"/>
<path transform="matrix(1,0,0,-1,0,269.35664)" stroke-width=".5" stroke-linecap="butt" stroke-linejoin="round" fill="none" stroke="#000000" d="M59.864984 29.240788V30.740788"/>
<path transform="matrix(1,0,0,-1,0,269.35664)" d="M59.864984 231.7128V230.2128"/>
<path transform="matrix(1,0,0,-1,0,269.35664)" stroke-width=".5" stroke-linecap="butt" stroke-linejoin="round" fill="none" stroke="#000000" d="M59.864984 231.7128V230.2128"/>
<path transform="matrix(1,0,0,-1,0,269.35664)" d="M92.01045 29.240788V30.740788"/>
<path transform="matrix(1,0,0,-1,0,269.35664)" stroke-width=".5" stroke-linecap="butt" stroke-linejoin="round" fill="none" stroke="#000000" d="M92.01045 29.240788V30.740788"/>
<path transform="matrix(1,0,0,-1,0,269.35664)" d="M92.01045 231.7128V230.2128"/>
<path transform="matrix(1,0,0,-1,0,269.35664)" stroke-width=".5" stroke-linecap="butt" stroke-linejoin="round" fill="none" stroke="#000000" d="M92.01045 231.7128V230.2128"/>
<path transform="matrix(1,0,0,-1,0,269.35664)" d="M124.15592 29.240788V30.740788"/>
<path transform="matrix(1,0,0,-1,0,269.35664)" stroke-width=".5" stroke-linecap="butt" stroke-linejoin="round" fill="none" stroke="#000000" d="M124.15592 29.240788V30.740788"/>
<path transform="matrix(1,0,0,-1,0,269.35664)" d="M124.15592 231.7128V230.2128"/>
<path transform="matrix(1,0,0,-1,0,269.35664)" stroke-width=".5" stroke-linecap="butt" stroke-linejoin="round" fill="none" stroke="#000000" d="M124.15592 231.7128V230.2128"/>
<path transform="matrix(1,0,0,-1,0,269.35664)" d="M188.44687 29.240788V30.740788"/>
<path transform="matrix(1,0,0,-1,0,269.35664)" stroke-width=".5" stroke-linecap="butt" stroke-linejoin="round" fill="none" stroke="#000000" d="M188.44687 29.240788V30.740788"/>
<path transform="matrix(1,0,0,-1,0,269.35664)" d="M188.44687 231.7128V230.2128"/>
<path transform="matrix(1,0,0,-1,0,269.35664)" stroke-width=".5" stroke-linecap="butt" stroke-linejoin="round" fill="none" stroke="#000000" d="M188.44687 231.7128V230.2128"/>
<path transform="matrix(1,0,0,-1,0,269.35664)" d="M220.59233 29.240788V30.740788"/>
<path transform="matrix(1,0,0,-1,0,269.35664)" stroke-width=".5" stroke-linecap="butt" stroke-linejoin="round" fill="none" stroke="#000000" d="M220.59233 29.240788V30.740788"/>
<path transform="matrix(1,0,0,-1,0,269.35664)" d="M220.59233 231.7128V230.2128"/>
<path transform="matrix(1,0,0,-1,0,269.35664)" stroke-width=".5" stroke-linecap="butt" stroke-linejoin="round" fill="none" stroke="#000000" d="M220.59233 231.7128V230.2128"/>
<path transform="matrix(1,0,0,-1,0,269.35664)" d="M252.73781 29.240788V30.740788"/>
<path transform="matrix(1,0,0,-1,0,269.35664)" stroke-width=".5" stroke-linecap="butt" stroke-linejoin="round" fill="none" stroke="#000000" d="M252.73781 29.240788V30.740788"/>
<path transform="matrix(1,0,0,-1,0,269.35664)" d="M252.73781 231.7128V230.2128"/>
<path transform="matrix(1,0,0,-1,0,269.35664)" stroke-width=".5" stroke-linecap="butt" stroke-linejoin="round" fill="none" stroke="#000000" d="M252.73781 231.7128V230.2128"/>
<path transform="matrix(1,0,0,-1,0,269.35664)" d="M284.88328 29.240788V30.740788"/>
<path transform="matrix(1,0,0,-1,0,269.35664)" stroke-width=".5" stroke-linecap="butt" stroke-linejoin="round" fill="none" stroke="#000000" d="M284.88328 29.240788V30.740788"/>
<path transform="matrix(1,0,0,-1,0,269.35664)" d="M284.88328 231.7128V230.2128"/>
<path transform="matrix(1,0,0,-1,0,269.35664)" stroke-width=".5" stroke-linecap="butt" stroke-linejoin="round" fill="none" stroke="#000000" d="M284.88328 231.7128V230.2128"/>
<path transform="matrix(1,0,0,-1,0,269.35664)" d="M349.17424 29.240788V30.740788"/>
<path transform="matrix(1,0,0,-1,0,269.35664)" stroke-width=".5" stroke-linecap="butt" stroke-linejoin="round" fill="none" stroke="#000000" d="M349.17424 29.240788V30.740788"/>
<path transform="matrix(1,0,0,-1,0,269.35664)" d="M349.17424 231.7128V230.2128"/>
<path transform="matrix(1,0,0,-1,0,269.35664)" stroke-width=".5" stroke-linecap="butt" stroke-linejoin="round" fill="none" stroke="#000000" d="M349.17424 231.7128V230.2128"/>
<path transform="matrix(1,0,0,-1,0,269.35664)" d="M381.31968 29.240788V30.740788"/>
<path transform="matrix(1,0,0,-1,0,269.35664)" stroke-width=".5" stroke-linecap="butt" stroke-linejoin="round" fill="none" stroke="#000000" d="M381.31968 29.240788V30.740788"/>
<path transform="matrix(1,0,0,-1,0,269.35664)" d="M381.31968 231.7128V230.2128"/>
<path transform="matrix(1,0,0,-1,0,269.35664)" stroke-width=".5" stroke-linecap="butt" stroke-linejoin="round" fill="none" stroke="#000000" d="M381.31968 231.7128V230.2128"/>
<path transform="matrix(1,0,0,-1,0,269.35664)" d="M413.46516 29.240788V30.740788"/>
<path transform="matrix(1,0,0,-1,0,269.35664)" stroke-width=".5" stroke-linecap="butt" stroke-linejoin="round" fill="none" stroke="#000000" d="M413.46516 29.240788V30.740788"/>
<path transform="matrix(1,0,0,-1,0,269.35664)" d="M413.46516 231.7128V230.2128"/>
<path transform="matrix(1,0,0,-1,0,269.35664)" stroke-width=".5" stroke-linecap="butt" stroke-linejoin="round" fill="none" stroke="#000000" d="M413.46516 231.7128V230.2128"/>
<path transform="matrix(1,0,0,-1,0,269.35664)" d="M445.61064 29.240788V30.740788"/>
<path transform="matrix(1,0,0,-1,0,269.35664)" stroke-width=".5" stroke-linecap="butt" stroke-linejoin="round" fill="none" stroke="#000000" d="M445.61064 29.240788V30.740788"/>
<path transform="matrix(1,0,0,-1,0,269.35664)" d="M445.61064 231.7128V230.2128"/>
<path transform="matrix(1,0,0,-1,0,269.35664)" stroke-width=".5" stroke-linecap="butt" stroke-linejoin="round" fill="none" stroke="#000000" d="M445.61064 231.7128V230.2128"/>
<path transform="matrix(1,0,0,-1,0,269.35664)" d="M509.90156 29.240788V30.740788"/>
<path transform="matrix(1,0,0,-1,0,269.35664)" stroke-width=".5" stroke-linecap="butt" stroke-linejoin="round" fill="none" stroke="#000000" d="M509.90156 29.240788V30.740788"/>
<path transform="matrix(1,0,0,-1,0,269.35664)" d="M509.90156 231.7128V230.2128"/>
<path transform="matrix(1,0,0,-1,0,269.35664)" stroke-width=".5" stroke-linecap="butt" stroke-linejoin="round" fill="none" stroke="#000000" d="M509.90156 231.7128V230.2128"/>
<path transform="matrix(1,0,0,-1,0,269.35664)" d="M542.04708 29.240788V30.740788"/>
<path transform="matrix(1,0,0,-1,0,269.35664)" stroke-width=".5" stroke-linecap="butt" stroke-linejoin="round" fill="none" stroke="#000000" d="M542.04708 29.240788V30.740788"/>
<path transform="matrix(1,0,0,-1,0,269.35664)" d="M542.04708 231.7128V230.2128"/>
<path transform="matrix(1,0,0,-1,0,269.35664)" stroke-width=".5" stroke-linecap="butt" stroke-linejoin="round" fill="none" stroke="#000000" d="M542.04708 231.7128V230.2128"/>
<path transform="matrix(1,0,0,-1,0,269.35664)" d="M574.1925 29.240788V30.740788"/>
<path transform="matrix(1,0,0,-1,0,269.35664)" stroke-width=".5" stroke-linecap="butt" stroke-linejoin="round" fill="none" stroke="#000000" d="M574.1925 29.240788V30.740788"/>
<path transform="matrix(1,0,0,-1,0,269.35664)" d="M574.1925 231.7128V230.2128"/>
<path transform="matrix(1,0,0,-1,0,269.35664)" stroke-width=".5" stroke-linecap="butt" stroke-linejoin="round" fill="none" stroke="#000000" d="M574.1925 231.7128V230.2128"/>
<path transform="matrix(1,0,0,-1,0,269.35664)" d="M606.33798 29.240788V30.740788"/>
<path transform="matrix(1,0,0,-1,0,269.35664)" stroke-width=".5" stroke-linecap="butt" stroke-linejoin="round" fill="none" stroke="#000000" d="M606.33798 29.240788V30.740788"/>
<path transform="matrix(1,0,0,-1,0,269.35664)" d="M606.33798 231.7128V230.2128"/>
<path transform="matrix(1,0,0,-1,0,269.35664)" stroke-width=".5" stroke-linecap="butt" stroke-linejoin="round" fill="none" stroke="#000000" d="M606.33798 231.7128V230.2128"/>
<path transform="matrix(1,0,0,-1,0,269.35664)" d="M670.6289 29.240788V30.740788"/>
<path transform="matrix(1,0,0,-1,0,269.35664)" stroke-width=".5" stroke-linecap="butt" stroke-linejoin="round" fill="none" stroke="#000000" d="M670.6289 29.240788V30.740788"/>
<path transform="matrix(1,0,0,-1,0,269.35664)" d="M670.6289 231.7128V230.2128"/>
<path transform="matrix(1,0,0,-1,0,269.35664)" stroke-width=".5" stroke-linecap="butt" stroke-linejoin="round" fill="none" stroke="#000000" d="M670.6289 231.7128V230.2128"/>
<path transform="matrix(1,0,0,-1,0,269.35664)" d="M702.77438 29.240788V30.740788"/>
<path transform="matrix(1,0,0,-1,0,269.35664)" stroke-width=".5" stroke-linecap="butt" stroke-linejoin="round" fill="none" stroke="#000000" d="M702.77438 29.240788V30.740788"/>
<path transform="matrix(1,0,0,-1,0,269.35664)" d="M702.77438 231.7128V230.2128"/>
<path transform="matrix(1,0,0,-1,0,269.35664)" stroke-width=".5" stroke-linecap="butt" stroke-linejoin="round" fill="none" stroke="#000000" d="M702.77438 231.7128V230.2128"/>
<path transform="matrix(1,0,0,-1,0,269.35664)" d="M734.91989 29.240788V30.740788"/>
<path transform="matrix(1,0,0,-1,0,269.35664)" stroke-width=".5" stroke-linecap="butt" stroke-linejoin="round" fill="none" stroke="#000000" d="M734.91989 29.240788V30.740788"/>
<path transform="matrix(1,0,0,-1,0,269.35664)" d="M734.91989 231.7128V230.2128"/>
<path transform="matrix(1,0,0,-1,0,269.35664)" stroke-width=".5" stroke-linecap="butt" stroke-linejoin="round" fill="none" stroke="#000000" d="M734.91989 231.7128V230.2128"/>
<path transform="matrix(1,0,0,-1,0,269.35664)" d="M767.0653 29.240788V30.740788"/>
<path transform="matrix(1,0,0,-1,0,269.35664)" stroke-width=".5" stroke-linecap="butt" stroke-linejoin="round" fill="none" stroke="#000000" d="M767.0653 29.240788V30.740788"/>
<path transform="matrix(1,0,0,-1,0,269.35664)" d="M767.0653 231.7128V230.2128"/>
<path transform="matrix(1,0,0,-1,0,269.35664)" stroke-width=".5" stroke-linecap="butt" stroke-linejoin="round" fill="none" stroke="#000000" d="M767.0653 231.7128V230.2128"/>
<path transform="matrix(1,0,0,-1,0,269.35664)" d="M831.35629 29.240788V30.740788"/>
<path transform="matrix(1,0,0,-1,0,269.35664)" stroke-width=".5" stroke-linecap="butt" stroke-linejoin="round" fill="none" stroke="#000000" d="M831.35629 29.240788V30.740788"/>
<path transform="matrix(1,0,0,-1,0,269.35664)" d="M831.35629 231.7128V230.2128"/>
<path transform="matrix(1,0,0,-1,0,269.35664)" stroke-width=".5" stroke-linecap="butt" stroke-linejoin="round" fill="none" stroke="#000000" d="M831.35629 231.7128V230.2128"/>
<path transform="matrix(1,0,0,-1,0,269.35664)" d="M863.5017 29.240788V30.740788"/>
<path transform="matrix(1,0,0,-1,0,269.35664)" stroke-width=".5" stroke-linecap="butt" stroke-linejoin="round" fill="none" stroke="#000000" d="M863.5017 29.240788V30.740788"/>
<path transform="matrix(1,0,0,-1,0,269.35664)" d="M863.5017 231.7128V230.2128"/>
<path transform="matrix(1,0,0,-1,0,269.35664)" stroke-width=".5" stroke-linecap="butt" stroke-linejoin="round" fill="none" stroke="#000000" d="M863.5017 231.7128V230.2128"/>
<path transform="matrix(1,0,0,-1,0,269.35664)" d="M895.6472 29.240788V30.740788"/>
<path transform="matrix(1,0,0,-1,0,269.35664)" stroke-width=".5" stroke-linecap="butt" stroke-linejoin="round" fill="none" stroke="#000000" d="M895.6472 29.240788V30.740788"/>
<path transform="matrix(1,0,0,-1,0,269.35664)" d="M895.6472 231.7128V230.2128"/>
<path transform="matrix(1,0,0,-1,0,269.35664)" stroke-width=".5" stroke-linecap="butt" stroke-linejoin="round" fill="none" stroke="#000000" d="M895.6472 231.7128V230.2128"/>
<path transform="matrix(1,0,0,-1,0,269.35664)" d="M927.79269 29.240788V30.740788"/>
<path transform="matrix(1,0,0,-1,0,269.35664)" stroke-width=".5" stroke-linecap="butt" stroke-linejoin="round" fill="none" stroke="#000000" d="M927.79269 29.240788V30.740788"/>
<path transform="matrix(1,0,0,-1,0,269.35664)" d="M927.79269 231.7128V230.2128"/>
<path transform="matrix(1,0,0,-1,0,269.35664)" stroke-width=".5" stroke-linecap="butt" stroke-linejoin="round" fill="none" stroke="#000000" d="M927.79269 231.7128V230.2128"/>
<path transform="matrix(1,0,0,-1,0,269.35664)" d="M992.0836 29.240788V30.740788"/>
<path transform="matrix(1,0,0,-1,0,269.35664)" stroke-width=".5" stroke-linecap="butt" stroke-linejoin="round" fill="none" stroke="#000000" d="M992.0836 29.240788V30.740788"/>
<path transform="matrix(1,0,0,-1,0,269.35664)" d="M992.0836 231.7128V230.2128"/>
<path transform="matrix(1,0,0,-1,0,269.35664)" stroke-width=".5" stroke-linecap="butt" stroke-linejoin="round" fill="none" stroke="#000000" d="M992.0836 231.7128V230.2128"/>
<path transform="matrix(1,0,0,-1,0,269.35664)" d="M1024.2291 29.240788V30.740788"/>
<path transform="matrix(1,0,0,-1,0,269.35664)" stroke-width=".5" stroke-linecap="butt" stroke-linejoin="round" fill="none" stroke="#000000" d="M1024.2291 29.240788V30.740788"/>
<path transform="matrix(1,0,0,-1,0,269.35664)" d="M1024.2291 231.7128V230.2128"/>
<path transform="matrix(1,0,0,-1,0,269.35664)" stroke-width=".5" stroke-linecap="butt" stroke-linejoin="round" fill="none" stroke="#000000" d="M1024.2291 231.7128V230.2128"/>
<path transform="matrix(1,0,0,-1,0,269.35664)" d="M1056.3745 29.240788V30.740788"/>
<path transform="matrix(1,0,0,-1,0,269.35664)" stroke-width=".5" stroke-linecap="butt" stroke-linejoin="round" fill="none" stroke="#000000" d="M1056.3745 29.240788V30.740788"/>
<path transform="matrix(1,0,0,-1,0,269.35664)" d="M1056.3745 231.7128V230.2128"/>
<path transform="matrix(1,0,0,-1,0,269.35664)" stroke-width=".5" stroke-linecap="butt" stroke-linejoin="round" fill="none" stroke="#000000" d="M1056.3745 231.7128V230.2128"/>
<g clip-path="url(#clip_29)">
<path transform="matrix(1,0,0,-1,0,269.35664)" stroke-width=".5" stroke-linecap="butt" stroke-dasharray="1.85,.8" stroke-linejoin="round" fill="none" stroke="#b0b0b0" stroke-opacity=".7" d="M54.23953 29.240788H1062"/>
</g>
<path transform="matrix(1,0,0,-1,0,269.35664)" d="M54.23953 29.240788H57.23953"/>
<path transform="matrix(1,0,0,-1,0,269.35664)" stroke-width=".5" stroke-linecap="butt" stroke-linejoin="round" fill="none" stroke="#000000" d="M54.23953 29.240788H57.23953"/>
<path transform="matrix(1,0,0,-1,0,269.35664)" d="M1062 29.240788H1059"/>
<path transform="matrix(1,0,0,-1,0,269.35664)" stroke-width=".5" stroke-linecap="butt" stroke-linejoin="round" fill="none" stroke="#000000" d="M1062 29.240788H1059"/>
<text xml:space="preserve" transform="matrix(1 0 -0 1 0 269.35664)" font-size="19.92528" font-family="Computer Modern"><tspan y="-22.32229" x="32.463338 41.589117">10</tspan></text>
<g clip-path="url(#clip_30)">
<path transform="matrix(1,0,0,-1,0,269.35664)" stroke-width=".5" stroke-linecap="butt" stroke-dasharray="1.85,.8" stroke-linejoin="round" fill="none" stroke="#b0b0b0" stroke-opacity=".7" d="M54.23953 53.061025H1062"/>
</g>
<path transform="matrix(1,0,0,-1,0,269.35664)" d="M54.23953 53.061025H57.23953"/>
<path transform="matrix(1,0,0,-1,0,269.35664)" stroke-width=".5" stroke-linecap="butt" stroke-linejoin="round" fill="none" stroke="#000000" d="M54.23953 53.061025H57.23953"/>
<path transform="matrix(1,0,0,-1,0,269.35664)" d="M1062 53.061025H1059"/>
<path transform="matrix(1,0,0,-1,0,269.35664)" stroke-width=".5" stroke-linecap="butt" stroke-linejoin="round" fill="none" stroke="#000000" d="M1062 53.061025H1059"/>
<text xml:space="preserve" transform="matrix(1 0 -0 1 0 269.35664)" font-size="19.92528" font-family="Computer Modern"><tspan y="-46.142526" x="32.463338 41.589117">20</tspan></text>
<g clip-path="url(#clip_31)">
<path transform="matrix(1,0,0,-1,0,269.35664)" stroke-width=".5" stroke-linecap="butt" stroke-dasharray="1.85,.8" stroke-linejoin="round" fill="none" stroke="#b0b0b0" stroke-opacity=".7" d="M54.23953 76.88126H1062"/>
</g>
<path transform="matrix(1,0,0,-1,0,269.35664)" d="M54.23953 76.88126H57.23953"/>
<path transform="matrix(1,0,0,-1,0,269.35664)" stroke-width=".5" stroke-linecap="butt" stroke-linejoin="round" fill="none" stroke="#000000" d="M54.23953 76.88126H57.23953"/>
<path transform="matrix(1,0,0,-1,0,269.35664)" d="M1062 76.88126H1059"/>
<path transform="matrix(1,0,0,-1,0,269.35664)" stroke-width=".5" stroke-linecap="butt" stroke-linejoin="round" fill="none" stroke="#000000" d="M1062 76.88126H1059"/>
<text xml:space="preserve" transform="matrix(1 0 -0 1 0 269.35664)" font-size="19.92528" font-family="Computer Modern"><tspan y="-69.96276" x="32.463338 41.589117">30</tspan></text>
<g clip-path="url(#clip_32)">
<path transform="matrix(1,0,0,-1,0,269.35664)" stroke-width=".5" stroke-linecap="butt" stroke-dasharray="1.85,.8" stroke-linejoin="round" fill="none" stroke="#b0b0b0" stroke-opacity=".7" d="M54.23953 100.7015H1062"/>
</g>
<path transform="matrix(1,0,0,-1,0,269.35664)" d="M54.23953 100.7015H57.23953"/>
<path transform="matrix(1,0,0,-1,0,269.35664)" stroke-width=".5" stroke-linecap="butt" stroke-linejoin="round" fill="none" stroke="#000000" d="M54.23953 100.7015H57.23953"/>
<path transform="matrix(1,0,0,-1,0,269.35664)" d="M1062 100.7015H1059"/>
<path transform="matrix(1,0,0,-1,0,269.35664)" stroke-width=".5" stroke-linecap="butt" stroke-linejoin="round" fill="none" stroke="#000000" d="M1062 100.7015H1059"/>
<text xml:space="preserve" transform="matrix(1 0 -0 1 0 269.35664)" font-size="19.92528" font-family="Computer Modern"><tspan y="-93.783" x="32.463338 41.589117">40</tspan></text>
<g clip-path="url(#clip_33)">
<path transform="matrix(1,0,0,-1,0,269.35664)" stroke-width=".5" stroke-linecap="butt" stroke-dasharray="1.85,.8" stroke-linejoin="round" fill="none" stroke="#b0b0b0" stroke-opacity=".7" d="M54.23953 124.521739H1062"/>
</g>
<path transform="matrix(1,0,0,-1,0,269.35664)" d="M54.23953 124.521739H57.23953"/>
<path transform="matrix(1,0,0,-1,0,269.35664)" stroke-width=".5" stroke-linecap="butt" stroke-linejoin="round" fill="none" stroke="#000000" d="M54.23953 124.521739H57.23953"/>
<path transform="matrix(1,0,0,-1,0,269.35664)" d="M1062 124.521739H1059"/>
<path transform="matrix(1,0,0,-1,0,269.35664)" stroke-width=".5" stroke-linecap="butt" stroke-linejoin="round" fill="none" stroke="#000000" d="M1062 124.521739H1059"/>
<text xml:space="preserve" transform="matrix(1 0 -0 1 0 269.35664)" font-size="19.92528" font-family="Computer Modern"><tspan y="-117.60323" x="32.463338 41.589117">50</tspan></text>
<g clip-path="url(#clip_34)">
<path transform="matrix(1,0,0,-1,0,269.35664)" stroke-width=".5" stroke-linecap="butt" stroke-dasharray="1.85,.8" stroke-linejoin="round" fill="none" stroke="#b0b0b0" stroke-opacity=".7" d="M54.23953 148.34197H1062"/>
</g>
<path transform="matrix(1,0,0,-1,0,269.35664)" d="M54.23953 148.34197H57.23953"/>
<path transform="matrix(1,0,0,-1,0,269.35664)" stroke-width=".5" stroke-linecap="butt" stroke-linejoin="round" fill="none" stroke="#000000" d="M54.23953 148.34197H57.23953"/>
<path transform="matrix(1,0,0,-1,0,269.35664)" d="M1062 148.34197H1059"/>
<path transform="matrix(1,0,0,-1,0,269.35664)" stroke-width=".5" stroke-linecap="butt" stroke-linejoin="round" fill="none" stroke="#000000" d="M1062 148.34197H1059"/>
<text xml:space="preserve" transform="matrix(1 0 -0 1 0 269.35664)" font-size="19.92528" font-family="Computer Modern"><tspan y="-141.42348" x="32.463338 41.589117">60</tspan></text>
<g clip-path="url(#clip_35)">
<path transform="matrix(1,0,0,-1,0,269.35664)" stroke-width=".5" stroke-linecap="butt" stroke-dasharray="1.85,.8" stroke-linejoin="round" fill="none" stroke="#b0b0b0" stroke-opacity=".7" d="M54.23953 172.1622H1062"/>
</g>
<path transform="matrix(1,0,0,-1,0,269.35664)" d="M54.23953 172.1622H57.23953"/>
<path transform="matrix(1,0,0,-1,0,269.35664)" stroke-width=".5" stroke-linecap="butt" stroke-linejoin="round" fill="none" stroke="#000000" d="M54.23953 172.1622H57.23953"/>
<path transform="matrix(1,0,0,-1,0,269.35664)" d="M1062 172.1622H1059"/>
<path transform="matrix(1,0,0,-1,0,269.35664)" stroke-width=".5" stroke-linecap="butt" stroke-linejoin="round" fill="none" stroke="#000000" d="M1062 172.1622H1059"/>
<text xml:space="preserve" transform="matrix(1 0 -0 1 0 269.35664)" font-size="19.92528" font-family="Computer Modern"><tspan y="-165.24372" x="32.463338 41.589117">70</tspan></text>
<g clip-path="url(#clip_36)">
<path transform="matrix(1,0,0,-1,0,269.35664)" stroke-width=".5" stroke-linecap="butt" stroke-dasharray="1.85,.8" stroke-linejoin="round" fill="none" stroke="#b0b0b0" stroke-opacity=".7" d="M54.23953 195.98246H1062"/>
</g>
<path transform="matrix(1,0,0,-1,0,269.35664)" d="M54.23953 195.98246H57.23953"/>
<path transform="matrix(1,0,0,-1,0,269.35664)" stroke-width=".5" stroke-linecap="butt" stroke-linejoin="round" fill="none" stroke="#000000" d="M54.23953 195.98246H57.23953"/>
<path transform="matrix(1,0,0,-1,0,269.35664)" d="M1062 195.98246H1059"/>
<path transform="matrix(1,0,0,-1,0,269.35664)" stroke-width=".5" stroke-linecap="butt" stroke-linejoin="round" fill="none" stroke="#000000" d="M1062 195.98246H1059"/>
<text xml:space="preserve" transform="matrix(1 0 -0 1 0 269.35664)" font-size="19.92528" font-family="Computer Modern"><tspan y="-189.06395" x="32.463338 41.589117">80</tspan></text>
<g clip-path="url(#clip_37)">
<path transform="matrix(1,0,0,-1,0,269.35664)" stroke-width=".5" stroke-linecap="butt" stroke-dasharray="1.85,.8" stroke-linejoin="round" fill="none" stroke="#b0b0b0" stroke-opacity=".7" d="M54.23953 219.80269H1062"/>
</g>
<path transform="matrix(1,0,0,-1,0,269.35664)" d="M54.23953 219.80269H57.23953"/>
<path transform="matrix(1,0,0,-1,0,269.35664)" stroke-width=".5" stroke-linecap="butt" stroke-linejoin="round" fill="none" stroke="#000000" d="M54.23953 219.80269H57.23953"/>
<path transform="matrix(1,0,0,-1,0,269.35664)" d="M1062 219.80269H1059"/>
<path transform="matrix(1,0,0,-1,0,269.35664)" stroke-width=".5" stroke-linecap="butt" stroke-linejoin="round" fill="none" stroke="#000000" d="M1062 219.80269H1059"/>
<text xml:space="preserve" transform="matrix(1 0 -0 1 0 269.35664)" font-size="19.92528" font-family="Computer Modern"><tspan y="-212.88419" x="32.463338 41.589117">90</tspan></text>
<path transform="matrix(1,0,0,-1,0,269.35664)" d="M54.23953 34.004835H55.73953"/>
<path transform="matrix(1,0,0,-1,0,269.35664)" stroke-width=".5" stroke-linecap="butt" stroke-linejoin="round" fill="none" stroke="#000000" d="M54.23953 34.004835H55.73953"/>
<path transform="matrix(1,0,0,-1,0,269.35664)" d="M1062 34.004835H1060.5"/>
<path transform="matrix(1,0,0,-1,0,269.35664)" stroke-width=".5" stroke-linecap="butt" stroke-linejoin="round" fill="none" stroke="#000000" d="M1062 34.004835H1060.5"/>
<path transform="matrix(1,0,0,-1,0,269.35664)" d="M54.23953 38.768884H55.73953"/>
<path transform="matrix(1,0,0,-1,0,269.35664)" stroke-width=".5" stroke-linecap="butt" stroke-linejoin="round" fill="none" stroke="#000000" d="M54.23953 38.768884H55.73953"/>
<path transform="matrix(1,0,0,-1,0,269.35664)" d="M1062 38.768884H1060.5"/>
<path transform="matrix(1,0,0,-1,0,269.35664)" stroke-width=".5" stroke-linecap="butt" stroke-linejoin="round" fill="none" stroke="#000000" d="M1062 38.768884H1060.5"/>
<path transform="matrix(1,0,0,-1,0,269.35664)" d="M54.23953 43.53293H55.73953"/>
<path transform="matrix(1,0,0,-1,0,269.35664)" stroke-width=".5" stroke-linecap="butt" stroke-linejoin="round" fill="none" stroke="#000000" d="M54.23953 43.53293H55.73953"/>
<path transform="matrix(1,0,0,-1,0,269.35664)" d="M1062 43.53293H1060.5"/>
<path transform="matrix(1,0,0,-1,0,269.35664)" stroke-width=".5" stroke-linecap="butt" stroke-linejoin="round" fill="none" stroke="#000000" d="M1062 43.53293H1060.5"/>
<path transform="matrix(1,0,0,-1,0,269.35664)" d="M54.23953 48.296979H55.73953"/>
<path transform="matrix(1,0,0,-1,0,269.35664)" stroke-width=".5" stroke-linecap="butt" stroke-linejoin="round" fill="none" stroke="#000000" d="M54.23953 48.296979H55.73953"/>
<path transform="matrix(1,0,0,-1,0,269.35664)" d="M1062 48.296979H1060.5"/>
<path transform="matrix(1,0,0,-1,0,269.35664)" stroke-width=".5" stroke-linecap="butt" stroke-linejoin="round" fill="none" stroke="#000000" d="M1062 48.296979H1060.5"/>
<path transform="matrix(1,0,0,-1,0,269.35664)" d="M54.23953 57.825075H55.73953"/>
<path transform="matrix(1,0,0,-1,0,269.35664)" stroke-width=".5" stroke-linecap="butt" stroke-linejoin="round" fill="none" stroke="#000000" d="M54.23953 57.825075H55.73953"/>
<path transform="matrix(1,0,0,-1,0,269.35664)" d="M1062 57.825075H1060.5"/>
<path transform="matrix(1,0,0,-1,0,269.35664)" stroke-width=".5" stroke-linecap="butt" stroke-linejoin="round" fill="none" stroke="#000000" d="M1062 57.825075H1060.5"/>
<path transform="matrix(1,0,0,-1,0,269.35664)" d="M54.23953 62.58912H55.73953"/>
<path transform="matrix(1,0,0,-1,0,269.35664)" stroke-width=".5" stroke-linecap="butt" stroke-linejoin="round" fill="none" stroke="#000000" d="M54.23953 62.58912H55.73953"/>
<path transform="matrix(1,0,0,-1,0,269.35664)" d="M1062 62.58912H1060.5"/>
<path transform="matrix(1,0,0,-1,0,269.35664)" stroke-width=".5" stroke-linecap="butt" stroke-linejoin="round" fill="none" stroke="#000000" d="M1062 62.58912H1060.5"/>
<path transform="matrix(1,0,0,-1,0,269.35664)" d="M54.23953 67.353168H55.73953"/>
<path transform="matrix(1,0,0,-1,0,269.35664)" stroke-width=".5" stroke-linecap="butt" stroke-linejoin="round" fill="none" stroke="#000000" d="M54.23953 67.353168H55.73953"/>
<path transform="matrix(1,0,0,-1,0,269.35664)" d="M1062 67.353168H1060.5"/>
<path transform="matrix(1,0,0,-1,0,269.35664)" stroke-width=".5" stroke-linecap="butt" stroke-linejoin="round" fill="none" stroke="#000000" d="M1062 67.353168H1060.5"/>
<path transform="matrix(1,0,0,-1,0,269.35664)" d="M54.23953 72.11721H55.73953"/>
<path transform="matrix(1,0,0,-1,0,269.35664)" stroke-width=".5" stroke-linecap="butt" stroke-linejoin="round" fill="none" stroke="#000000" d="M54.23953 72.11721H55.73953"/>
<path transform="matrix(1,0,0,-1,0,269.35664)" d="M1062 72.11721H1060.5"/>
<path transform="matrix(1,0,0,-1,0,269.35664)" stroke-width=".5" stroke-linecap="butt" stroke-linejoin="round" fill="none" stroke="#000000" d="M1062 72.11721H1060.5"/>
<path transform="matrix(1,0,0,-1,0,269.35664)" d="M54.23953 81.64531H55.73953"/>
<path transform="matrix(1,0,0,-1,0,269.35664)" stroke-width=".5" stroke-linecap="butt" stroke-linejoin="round" fill="none" stroke="#000000" d="M54.23953 81.64531H55.73953"/>
<path transform="matrix(1,0,0,-1,0,269.35664)" d="M1062 81.64531H1060.5"/>
<path transform="matrix(1,0,0,-1,0,269.35664)" stroke-width=".5" stroke-linecap="butt" stroke-linejoin="round" fill="none" stroke="#000000" d="M1062 81.64531H1060.5"/>
<path transform="matrix(1,0,0,-1,0,269.35664)" d="M54.23953 86.409358H55.73953"/>
<path transform="matrix(1,0,0,-1,0,269.35664)" stroke-width=".5" stroke-linecap="butt" stroke-linejoin="round" fill="none" stroke="#000000" d="M54.23953 86.409358H55.73953"/>
<path transform="matrix(1,0,0,-1,0,269.35664)" d="M1062 86.409358H1060.5"/>
<path transform="matrix(1,0,0,-1,0,269.35664)" stroke-width=".5" stroke-linecap="butt" stroke-linejoin="round" fill="none" stroke="#000000" d="M1062 86.409358H1060.5"/>
<path transform="matrix(1,0,0,-1,0,269.35664)" d="M54.23953 91.1734H55.73953"/>
<path transform="matrix(1,0,0,-1,0,269.35664)" stroke-width=".5" stroke-linecap="butt" stroke-linejoin="round" fill="none" stroke="#000000" d="M54.23953 91.1734H55.73953"/>
<path transform="matrix(1,0,0,-1,0,269.35664)" d="M1062 91.1734H1060.5"/>
<path transform="matrix(1,0,0,-1,0,269.35664)" stroke-width=".5" stroke-linecap="butt" stroke-linejoin="round" fill="none" stroke="#000000" d="M1062 91.1734H1060.5"/>
<path transform="matrix(1,0,0,-1,0,269.35664)" d="M54.23953 95.937458H55.73953"/>
<path transform="matrix(1,0,0,-1,0,269.35664)" stroke-width=".5" stroke-linecap="butt" stroke-linejoin="round" fill="none" stroke="#000000" d="M54.23953 95.937458H55.73953"/>
<path transform="matrix(1,0,0,-1,0,269.35664)" d="M1062 95.937458H1060.5"/>
<path transform="matrix(1,0,0,-1,0,269.35664)" stroke-width=".5" stroke-linecap="butt" stroke-linejoin="round" fill="none" stroke="#000000" d="M1062 95.937458H1060.5"/>
<path transform="matrix(1,0,0,-1,0,269.35664)" d="M54.23953 105.465549H55.73953"/>
<path transform="matrix(1,0,0,-1,0,269.35664)" stroke-width=".5" stroke-linecap="butt" stroke-linejoin="round" fill="none" stroke="#000000" d="M54.23953 105.465549H55.73953"/>
<path transform="matrix(1,0,0,-1,0,269.35664)" d="M1062 105.465549H1060.5"/>
<path transform="matrix(1,0,0,-1,0,269.35664)" stroke-width=".5" stroke-linecap="butt" stroke-linejoin="round" fill="none" stroke="#000000" d="M1062 105.465549H1060.5"/>
<path transform="matrix(1,0,0,-1,0,269.35664)" d="M54.23953 110.22959H55.73953"/>
<path transform="matrix(1,0,0,-1,0,269.35664)" stroke-width=".5" stroke-linecap="butt" stroke-linejoin="round" fill="none" stroke="#000000" d="M54.23953 110.22959H55.73953"/>
<path transform="matrix(1,0,0,-1,0,269.35664)" d="M1062 110.22959H1060.5"/>
<path transform="matrix(1,0,0,-1,0,269.35664)" stroke-width=".5" stroke-linecap="butt" stroke-linejoin="round" fill="none" stroke="#000000" d="M1062 110.22959H1060.5"/>
<path transform="matrix(1,0,0,-1,0,269.35664)" d="M54.23953 114.99364H55.73953"/>
<path transform="matrix(1,0,0,-1,0,269.35664)" stroke-width=".5" stroke-linecap="butt" stroke-linejoin="round" fill="none" stroke="#000000" d="M54.23953 114.99364H55.73953"/>
<path transform="matrix(1,0,0,-1,0,269.35664)" d="M1062 114.99364H1060.5"/>
<path transform="matrix(1,0,0,-1,0,269.35664)" stroke-width=".5" stroke-linecap="butt" stroke-linejoin="round" fill="none" stroke="#000000" d="M1062 114.99364H1060.5"/>
<path transform="matrix(1,0,0,-1,0,269.35664)" d="M54.23953 119.75769H55.73953"/>
<path transform="matrix(1,0,0,-1,0,269.35664)" stroke-width=".5" stroke-linecap="butt" stroke-linejoin="round" fill="none" stroke="#000000" d="M54.23953 119.75769H55.73953"/>
<path transform="matrix(1,0,0,-1,0,269.35664)" d="M1062 119.75769H1060.5"/>
<path transform="matrix(1,0,0,-1,0,269.35664)" stroke-width=".5" stroke-linecap="butt" stroke-linejoin="round" fill="none" stroke="#000000" d="M1062 119.75769H1060.5"/>
<path transform="matrix(1,0,0,-1,0,269.35664)" d="M54.23953 129.28578H55.73953"/>
<path transform="matrix(1,0,0,-1,0,269.35664)" stroke-width=".5" stroke-linecap="butt" stroke-linejoin="round" fill="none" stroke="#000000" d="M54.23953 129.28578H55.73953"/>
<path transform="matrix(1,0,0,-1,0,269.35664)" d="M1062 129.28578H1060.5"/>
<path transform="matrix(1,0,0,-1,0,269.35664)" stroke-width=".5" stroke-linecap="butt" stroke-linejoin="round" fill="none" stroke="#000000" d="M1062 129.28578H1060.5"/>
<path transform="matrix(1,0,0,-1,0,269.35664)" d="M54.23953 134.04984H55.73953"/>
<path transform="matrix(1,0,0,-1,0,269.35664)" stroke-width=".5" stroke-linecap="butt" stroke-linejoin="round" fill="none" stroke="#000000" d="M54.23953 134.04984H55.73953"/>
<path transform="matrix(1,0,0,-1,0,269.35664)" d="M1062 134.04984H1060.5"/>
<path transform="matrix(1,0,0,-1,0,269.35664)" stroke-width=".5" stroke-linecap="butt" stroke-linejoin="round" fill="none" stroke="#000000" d="M1062 134.04984H1060.5"/>
<path transform="matrix(1,0,0,-1,0,269.35664)" d="M54.23953 138.81388H55.73953"/>
<path transform="matrix(1,0,0,-1,0,269.35664)" stroke-width=".5" stroke-linecap="butt" stroke-linejoin="round" fill="none" stroke="#000000" d="M54.23953 138.81388H55.73953"/>
<path transform="matrix(1,0,0,-1,0,269.35664)" d="M1062 138.81388H1060.5"/>
<path transform="matrix(1,0,0,-1,0,269.35664)" stroke-width=".5" stroke-linecap="butt" stroke-linejoin="round" fill="none" stroke="#000000" d="M1062 138.81388H1060.5"/>
<path transform="matrix(1,0,0,-1,0,269.35664)" d="M54.23953 143.57793H55.73953"/>
<path transform="matrix(1,0,0,-1,0,269.35664)" stroke-width=".5" stroke-linecap="butt" stroke-linejoin="round" fill="none" stroke="#000000" d="M54.23953 143.57793H55.73953"/>
<path transform="matrix(1,0,0,-1,0,269.35664)" d="M1062 143.57793H1060.5"/>
<path transform="matrix(1,0,0,-1,0,269.35664)" stroke-width=".5" stroke-linecap="butt" stroke-linejoin="round" fill="none" stroke="#000000" d="M1062 143.57793H1060.5"/>
<path transform="matrix(1,0,0,-1,0,269.35664)" d="M54.23953 153.10602H55.73953"/>
<path transform="matrix(1,0,0,-1,0,269.35664)" stroke-width=".5" stroke-linecap="butt" stroke-linejoin="round" fill="none" stroke="#000000" d="M54.23953 153.10602H55.73953"/>
<path transform="matrix(1,0,0,-1,0,269.35664)" d="M1062 153.10602H1060.5"/>
<path transform="matrix(1,0,0,-1,0,269.35664)" stroke-width=".5" stroke-linecap="butt" stroke-linejoin="round" fill="none" stroke="#000000" d="M1062 153.10602H1060.5"/>
<path transform="matrix(1,0,0,-1,0,269.35664)" d="M54.23953 157.87007H55.73953"/>
<path transform="matrix(1,0,0,-1,0,269.35664)" stroke-width=".5" stroke-linecap="butt" stroke-linejoin="round" fill="none" stroke="#000000" d="M54.23953 157.87007H55.73953"/>
<path transform="matrix(1,0,0,-1,0,269.35664)" d="M1062 157.87007H1060.5"/>
<path transform="matrix(1,0,0,-1,0,269.35664)" stroke-width=".5" stroke-linecap="butt" stroke-linejoin="round" fill="none" stroke="#000000" d="M1062 157.87007H1060.5"/>
<path transform="matrix(1,0,0,-1,0,269.35664)" d="M54.23953 162.63411H55.73953"/>
<path transform="matrix(1,0,0,-1,0,269.35664)" stroke-width=".5" stroke-linecap="butt" stroke-linejoin="round" fill="none" stroke="#000000" d="M54.23953 162.63411H55.73953"/>
<path transform="matrix(1,0,0,-1,0,269.35664)" d="M1062 162.63411H1060.5"/>
<path transform="matrix(1,0,0,-1,0,269.35664)" stroke-width=".5" stroke-linecap="butt" stroke-linejoin="round" fill="none" stroke="#000000" d="M1062 162.63411H1060.5"/>
<path transform="matrix(1,0,0,-1,0,269.35664)" d="M54.23953 167.39817H55.73953"/>
<path transform="matrix(1,0,0,-1,0,269.35664)" stroke-width=".5" stroke-linecap="butt" stroke-linejoin="round" fill="none" stroke="#000000" d="M54.23953 167.39817H55.73953"/>
<path transform="matrix(1,0,0,-1,0,269.35664)" d="M1062 167.39817H1060.5"/>
<path transform="matrix(1,0,0,-1,0,269.35664)" stroke-width=".5" stroke-linecap="butt" stroke-linejoin="round" fill="none" stroke="#000000" d="M1062 167.39817H1060.5"/>
<path transform="matrix(1,0,0,-1,0,269.35664)" d="M54.23953 176.92626H55.73953"/>
<path transform="matrix(1,0,0,-1,0,269.35664)" stroke-width=".5" stroke-linecap="butt" stroke-linejoin="round" fill="none" stroke="#000000" d="M54.23953 176.92626H55.73953"/>
<path transform="matrix(1,0,0,-1,0,269.35664)" d="M1062 176.92626H1060.5"/>
<path transform="matrix(1,0,0,-1,0,269.35664)" stroke-width=".5" stroke-linecap="butt" stroke-linejoin="round" fill="none" stroke="#000000" d="M1062 176.92626H1060.5"/>
<path transform="matrix(1,0,0,-1,0,269.35664)" d="M54.23953 181.6903H55.73953"/>
<path transform="matrix(1,0,0,-1,0,269.35664)" stroke-width=".5" stroke-linecap="butt" stroke-linejoin="round" fill="none" stroke="#000000" d="M54.23953 181.6903H55.73953"/>
<path transform="matrix(1,0,0,-1,0,269.35664)" d="M1062 181.6903H1060.5"/>
<path transform="matrix(1,0,0,-1,0,269.35664)" stroke-width=".5" stroke-linecap="butt" stroke-linejoin="round" fill="none" stroke="#000000" d="M1062 181.6903H1060.5"/>
<path transform="matrix(1,0,0,-1,0,269.35664)" d="M54.23953 186.45435H55.73953"/>
<path transform="matrix(1,0,0,-1,0,269.35664)" stroke-width=".5" stroke-linecap="butt" stroke-linejoin="round" fill="none" stroke="#000000" d="M54.23953 186.45435H55.73953"/>
<path transform="matrix(1,0,0,-1,0,269.35664)" d="M1062 186.45435H1060.5"/>
<path transform="matrix(1,0,0,-1,0,269.35664)" stroke-width=".5" stroke-linecap="butt" stroke-linejoin="round" fill="none" stroke="#000000" d="M1062 186.45435H1060.5"/>
<path transform="matrix(1,0,0,-1,0,269.35664)" d="M54.23953 191.2184H55.73953"/>
<path transform="matrix(1,0,0,-1,0,269.35664)" stroke-width=".5" stroke-linecap="butt" stroke-linejoin="round" fill="none" stroke="#000000" d="M54.23953 191.2184H55.73953"/>
<path transform="matrix(1,0,0,-1,0,269.35664)" d="M1062 191.2184H1060.5"/>
<path transform="matrix(1,0,0,-1,0,269.35664)" stroke-width=".5" stroke-linecap="butt" stroke-linejoin="round" fill="none" stroke="#000000" d="M1062 191.2184H1060.5"/>
<path transform="matrix(1,0,0,-1,0,269.35664)" d="M54.23953 200.74649H55.73953"/>
<path transform="matrix(1,0,0,-1,0,269.35664)" stroke-width=".5" stroke-linecap="butt" stroke-linejoin="round" fill="none" stroke="#000000" d="M54.23953 200.74649H55.73953"/>
<path transform="matrix(1,0,0,-1,0,269.35664)" d="M1062 200.74649H1060.5"/>
<path transform="matrix(1,0,0,-1,0,269.35664)" stroke-width=".5" stroke-linecap="butt" stroke-linejoin="round" fill="none" stroke="#000000" d="M1062 200.74649H1060.5"/>
<path transform="matrix(1,0,0,-1,0,269.35664)" d="M54.23953 205.51055H55.73953"/>
<path transform="matrix(1,0,0,-1,0,269.35664)" stroke-width=".5" stroke-linecap="butt" stroke-linejoin="round" fill="none" stroke="#000000" d="M54.23953 205.51055H55.73953"/>
<path transform="matrix(1,0,0,-1,0,269.35664)" d="M1062 205.51055H1060.5"/>
<path transform="matrix(1,0,0,-1,0,269.35664)" stroke-width=".5" stroke-linecap="butt" stroke-linejoin="round" fill="none" stroke="#000000" d="M1062 205.51055H1060.5"/>
<path transform="matrix(1,0,0,-1,0,269.35664)" d="M54.23953 210.27458H55.73953"/>
<path transform="matrix(1,0,0,-1,0,269.35664)" stroke-width=".5" stroke-linecap="butt" stroke-linejoin="round" fill="none" stroke="#000000" d="M54.23953 210.27458H55.73953"/>
<path transform="matrix(1,0,0,-1,0,269.35664)" d="M1062 210.27458H1060.5"/>
<path transform="matrix(1,0,0,-1,0,269.35664)" stroke-width=".5" stroke-linecap="butt" stroke-linejoin="round" fill="none" stroke="#000000" d="M1062 210.27458H1060.5"/>
<path transform="matrix(1,0,0,-1,0,269.35664)" d="M54.23953 215.03864H55.73953"/>
<path transform="matrix(1,0,0,-1,0,269.35664)" stroke-width=".5" stroke-linecap="butt" stroke-linejoin="round" fill="none" stroke="#000000" d="M54.23953 215.03864H55.73953"/>
<path transform="matrix(1,0,0,-1,0,269.35664)" d="M1062 215.03864H1060.5"/>
<path transform="matrix(1,0,0,-1,0,269.35664)" stroke-width=".5" stroke-linecap="butt" stroke-linejoin="round" fill="none" stroke="#000000" d="M1062 215.03864H1060.5"/>
<path transform="matrix(1,0,0,-1,0,269.35664)" d="M54.23953 224.56673H55.73953"/>
<path transform="matrix(1,0,0,-1,0,269.35664)" stroke-width=".5" stroke-linecap="butt" stroke-linejoin="round" fill="none" stroke="#000000" d="M54.23953 224.56673H55.73953"/>
<path transform="matrix(1,0,0,-1,0,269.35664)" d="M1062 224.56673H1060.5"/>
<path transform="matrix(1,0,0,-1,0,269.35664)" stroke-width=".5" stroke-linecap="butt" stroke-linejoin="round" fill="none" stroke="#000000" d="M1062 224.56673H1060.5"/>
<path transform="matrix(1,0,0,-1,0,269.35664)" d="M54.23953 229.33078H55.73953"/>
<path transform="matrix(1,0,0,-1,0,269.35664)" stroke-width=".5" stroke-linecap="butt" stroke-linejoin="round" fill="none" stroke="#000000" d="M54.23953 229.33078H55.73953"/>
<path transform="matrix(1,0,0,-1,0,269.35664)" d="M1062 229.33078H1060.5"/>
<path transform="matrix(1,0,0,-1,0,269.35664)" stroke-width=".5" stroke-linecap="butt" stroke-linejoin="round" fill="none" stroke="#000000" d="M1062 229.33078H1060.5"/>
<text xml:space="preserve" transform="matrix(0 -1 1 0 0 269.35664)" font-size="24.9066" font-family="Computer Modern"><tspan y="22.257529" x="61.946088 79.20636 89.31844 99.43053 112.1329 120.94983 132.35706 142.46913 162.04291 170.85985 190.08774">Accuracy(%)</tspan></text>
<path transform="matrix(1,0,0,-1,0,269.35664)" stroke-width=".5" stroke-linecap="square" stroke-miterlimit="10" stroke-linejoin="miter" fill="none" stroke="#000000" d="M54.23953 29.240788V231.7128"/>
<path transform="matrix(1,0,0,-1,0,269.35664)" stroke-width=".5" stroke-linecap="square" stroke-miterlimit="10" stroke-linejoin="miter" fill="none" stroke="#000000" d="M1062 29.240788V231.7128"/>
<path transform="matrix(1,0,0,-1,0,269.35664)" stroke-width=".5" stroke-linecap="square" stroke-miterlimit="10" stroke-linejoin="miter" fill="none" stroke="#000000" d="M54.23953 29.240788H1062"/>
<path transform="matrix(1,0,0,-1,0,269.35664)" stroke-width=".5" stroke-linecap="square" stroke-miterlimit="10" stroke-linejoin="miter" fill="none" stroke="#000000" d="M54.23953 231.7128H1062"/>
<text fill="#ffffff" xml:space="preserve" transform="matrix(1 0 -0 1 0 269.35664)" font-size="12.951432" font-family="Computer Modern"><tspan y="-200.60483" x="107.76972 114.102977">89</tspan></text>
<text fill="#ffffff" xml:space="preserve" transform="matrix(1 0 -0 1 0 269.35664)" font-size="12.951432" font-family="Computer Modern"><tspan y="-136.29082" x="268.49708 274.83033">62</tspan></text>
<text fill="#ffffff" xml:space="preserve" transform="matrix(1 0 -0 1 0 269.35664)" font-size="12.951432" font-family="Computer Modern"><tspan y="-116.33216" x="429.22444 435.55769">53</tspan></text>
<text fill="#ffffff" xml:space="preserve" transform="matrix(1 0 -0 1 0 269.35664)" font-size="12.951432" font-family="Computer Modern"><tspan y="-187.78243" x="589.9518 596.28506">83</tspan></text>
<text fill="#ffffff" xml:space="preserve" transform="matrix(1 0 -0 1 0 269.35664)" font-size="12.951432" font-family="Computer Modern"><tspan y="-166.74121" x="750.67916 757.0124">75</tspan></text>
<text fill="#ffffff" xml:space="preserve" transform="matrix(1 0 -0 1 0 269.35664)" font-size="12.951432" font-family="Computer Modern"><tspan y="-192.54648" x="911.4065 917.73977">85</tspan></text>
<text fill="#ffffff" xml:space="preserve" transform="matrix(1 0 -0 1 0 269.35664)" font-size="12.951432" font-family="Computer Modern"><tspan y="-186.18001" x="135.897 142.23026">83</tspan></text>
<text fill="#ffffff" xml:space="preserve" transform="matrix(1 0 -0 1 0 269.35664)" font-size="12.951432" font-family="Computer Modern"><tspan y="-108.2184" x="296.62437 302.9576">50</tspan></text>
<text fill="#ffffff" xml:space="preserve" transform="matrix(1 0 -0 1 0 269.35664)" font-size="12.951432" font-family="Computer Modern"><tspan y="-65.13955" x="457.3517 463.68498">32</tspan></text>
<text fill="#ffffff" xml:space="preserve" transform="matrix(1 0 -0 1 0 269.35664)" font-size="12.951432" font-family="Computer Modern"><tspan y="-160.78617" x="618.07907 624.4123">72</tspan></text>
<text fill="#ffffff" xml:space="preserve" transform="matrix(1 0 -0 1 0 269.35664)" font-size="12.951432" font-family="Computer Modern"><tspan y="-141.01537" x="778.8064 785.13967">64</tspan></text>
<text fill="#ffffff" xml:space="preserve" transform="matrix(1 0 -0 1 0 269.35664)" font-size="12.951432" font-family="Computer Modern"><tspan y="-171.26706" x="939.53378 945.867">76</tspan></text>
<text fill="#ffffff" xml:space="preserve" transform="matrix(1 0 -0 1 0 269.35664)" font-size="12.951432" font-family="Computer Modern"><tspan y="-184.50868" x="164.02429 170.35755">82</tspan></text>
<text fill="#ffffff" xml:space="preserve" transform="matrix(1 0 -0 1 0 269.35664)" font-size="12.951432" font-family="Computer Modern"><tspan y="-83.4913" x="324.75166 331.0849">40</tspan></text>
<text fill="#ffffff" xml:space="preserve" transform="matrix(1 0 -0 1 0 269.35664)" font-size="12.951432" font-family="Computer Modern"><tspan y="-49.207155" x="485.479 491.81227">25</tspan></text>
<text fill="#ffffff" xml:space="preserve" transform="matrix(1 0 -0 1 0 269.35664)" font-size="12.951432" font-family="Computer Modern"><tspan y="-151.57567" x="646.20639 652.5396">68</tspan></text>
<text fill="#ffffff" xml:space="preserve" transform="matrix(1 0 -0 1 0 269.35664)" font-size="12.951432" font-family="Computer Modern"><tspan y="-136.72772" x="806.9337 813.26699">62</tspan></text>
<text fill="#ffffff" xml:space="preserve" transform="matrix(1 0 -0 1 0 269.35664)" font-size="12.951432" font-family="Computer Modern"><tspan y="-169.99665" x="967.661 973.99429">76</tspan></text>
<text fill="#ffffff" xml:space="preserve" transform="matrix(1 0 -0 1 0 269.35664)" font-size="12.951432" font-family="Computer Modern"><tspan y="-177.15067" x="192.15158 198.48484">79</tspan></text>
<text fill="#ffffff" xml:space="preserve" transform="matrix(1 0 -0 1 0 269.35664)" font-size="12.951432" font-family="Computer Modern"><tspan y="-85.10926" x="352.87895 359.2122">40</tspan></text>
<text fill="#ffffff" xml:space="preserve" transform="matrix(1 0 -0 1 0 269.35664)" font-size="12.951432" font-family="Computer Modern"><tspan y="-46.067899" x="513.60629 519.9395">24</tspan></text>
<text fill="#ffffff" xml:space="preserve" transform="matrix(1 0 -0 1 0 269.35664)" font-size="12.951432" font-family="Computer Modern"><tspan y="-153.64009" x="674.3336 680.6669">69</tspan></text>
<text fill="#ffffff" xml:space="preserve" transform="matrix(1 0 -0 1 0 269.35664)" font-size="12.951432" font-family="Computer Modern"><tspan y="-135.44142" x="835.061 841.3942">61</tspan></text>
<text fill="#ffffff" xml:space="preserve" transform="matrix(1 0 -0 1 0 269.35664)" font-size="12.951432" font-family="Computer Modern"><tspan y="-168.64684" x="995.7883 1002.1216">75</tspan></text>
<path transform="matrix(1,0,0,-1,0,269.35664)" d="M132.94144 242.65665H174.94144V257.35664H132.94144Z" fill="#1f5c92"/>
<path transform="matrix(1,0,0,-1,0,269.35664)" stroke-width="1" stroke-linecap="butt" stroke-miterlimit="10" stroke-linejoin="miter" fill="none" stroke="#000000" d="M132.94144 242.65665H174.94144V257.35664H132.94144Z"/>
<text xml:space="preserve" transform="matrix(1 0 -0 1 0 269.35664)" font-size="20.921545" font-family="Computer Modern"><tspan y="-242.65665" x="191.74143 206.78401 217.454 224.86023 230.0697 246.22113 255.80319 267.3286 279.3585 287.85264 298.5226 308.10469 315.5109">OptimalLength</tspan></text>
<path transform="matrix(1,0,0,-1,0,269.35664)" d="M368.34049 242.65665H410.34049V257.35664H368.34049Z" fill="#17a24b"/>
<path transform="matrix(1,0,0,-1,0,269.35664)" stroke-width="1" stroke-linecap="butt" stroke-miterlimit="10" stroke-linejoin="miter" fill="none" stroke="#000000" d="M368.34049 242.65665H410.34049V257.35664H368.34049Z"/>
<text xml:space="preserve" transform="matrix(1 0 -0 1 0 269.35664)" font-size="20.921545" font-family="Computer Modern"><tspan y="-242.65665" x="427.14048 441.6391 450.13325 457.53947 468.20945 477.7915 489.31694 501.3468 509.84095 520.5109 530.093 537.49929">ActualLength</tspan></text>
<path transform="matrix(1,0,0,-1,0,269.35664)" d="M590.31057 242.65665H632.31057V257.35664H590.31057Z" fill="#df9020"/>
<path transform="matrix(1,0,0,-1,0,269.35664)" stroke-width="1" stroke-linecap="butt" stroke-miterlimit="10" stroke-linejoin="miter" fill="none" stroke="#000000" d="M590.31057 242.65665H632.31057V257.35664H590.31057Z"/>
<text xml:space="preserve" transform="matrix(1 0 -0 1 0 269.35664)" font-size="20.921545" font-family="Computer Modern"><tspan y="-242.65665" x="649.1106 663.60928 673.19137 679.4887 693.44338 703.02548">No-CoT</tspan></text>
<path transform="matrix(1,0,0,-1,0,269.35664)" d="M759.05587 242.65665H801.05587V257.35664H759.05587Z" fill="#df4120"/>
<path transform="matrix(1,0,0,-1,0,269.35664)" stroke-width="1" stroke-linecap="butt" stroke-miterlimit="10" stroke-linejoin="miter" fill="none" stroke="#000000" d="M759.05587 242.65665H801.05587V257.35664H759.05587Z"/>
<text xml:space="preserve" transform="matrix(1 0 -0 1 0 269.35664)" font-size="20.921545" font-family="Computer Modern"><tspan y="-242.65665" x="817.85586 824.6972 835.3672 842.87808 850.2843 857.69058 868.36056 876.8547 890.57687 908.36019 918.4888 929.15878 937.6529">InstructModel</tspan></text>
<g clip-path="url(#clip_38)">
<path transform="matrix(1,0,0,-1,0,269.35664)" stroke-width="1.5" stroke-linecap="butt" stroke-linejoin="round" fill="none" stroke="#000000" d="M114.110469 217.1683V218.70357"/>
</g>
<g clip-path="url(#clip_39)">
<path transform="matrix(1,0,0,-1,0,269.35664)" d="M118.110469 217.1683H110.110469"/>
<path transform="matrix(1,0,0,-1,0,269.35664)" stroke-width="1.5" stroke-linecap="butt" stroke-linejoin="round" fill="none" stroke="#000000" d="M118.110469 217.1683H110.110469"/>
</g>
<g clip-path="url(#clip_40)">
<path transform="matrix(1,0,0,-1,0,269.35664)" d="M118.110469 218.70357H110.110469"/>
<path transform="matrix(1,0,0,-1,0,269.35664)" stroke-width="1.5" stroke-linecap="butt" stroke-linejoin="round" fill="none" stroke="#000000" d="M118.110469 218.70357H110.110469"/>
</g>
<g clip-path="url(#clip_41)">
<path transform="matrix(1,0,0,-1,0,269.35664)" stroke-width="1.5" stroke-linecap="butt" stroke-linejoin="round" fill="none" stroke="#000000" d="M274.8378 152.6958V154.54805"/>
</g>
<g clip-path="url(#clip_42)">
<path transform="matrix(1,0,0,-1,0,269.35664)" d="M278.8378 152.6958H270.8378"/>
<path transform="matrix(1,0,0,-1,0,269.35664)" stroke-width="1.5" stroke-linecap="butt" stroke-linejoin="round" fill="none" stroke="#000000" d="M278.8378 152.6958H270.8378"/>
</g>
<g clip-path="url(#clip_43)">
<path transform="matrix(1,0,0,-1,0,269.35664)" d="M278.8378 154.54805H270.8378"/>
<path transform="matrix(1,0,0,-1,0,269.35664)" stroke-width="1.5" stroke-linecap="butt" stroke-linejoin="round" fill="none" stroke="#000000" d="M278.8378 154.54805H270.8378"/>
</g>
<g clip-path="url(#clip_44)">
<path transform="matrix(1,0,0,-1,0,269.35664)" stroke-width="1.5" stroke-linecap="butt" stroke-linejoin="round" fill="none" stroke="#000000" d="M435.56517 132.72205V134.60449"/>
</g>
<g clip-path="url(#clip_45)">
<path transform="matrix(1,0,0,-1,0,269.35664)" d="M439.56517 132.72205H431.56517"/>
<path transform="matrix(1,0,0,-1,0,269.35664)" stroke-width="1.5" stroke-linecap="butt" stroke-linejoin="round" fill="none" stroke="#000000" d="M439.56517 132.72205H431.56517"/>
</g>
<g clip-path="url(#clip_46)">
<path transform="matrix(1,0,0,-1,0,269.35664)" d="M439.56517 134.60449H431.56517"/>
<path transform="matrix(1,0,0,-1,0,269.35664)" stroke-width="1.5" stroke-linecap="butt" stroke-linejoin="round" fill="none" stroke="#000000" d="M439.56517 134.60449H431.56517"/>
</g>
<g clip-path="url(#clip_47)">
<path transform="matrix(1,0,0,-1,0,269.35664)" stroke-width="1.5" stroke-linecap="butt" stroke-linejoin="round" fill="none" stroke="#000000" d="M596.2925 205.11354V205.11354"/>
</g>
<g clip-path="url(#clip_48)">
<path transform="matrix(1,0,0,-1,0,269.35664)" d="M600.2925 205.11354H592.2925"/>
<path transform="matrix(1,0,0,-1,0,269.35664)" stroke-width="1.5" stroke-linecap="butt" stroke-linejoin="round" fill="none" stroke="#000000" d="M600.2925 205.11354H592.2925"/>
</g>
<g clip-path="url(#clip_49)">
<path transform="matrix(1,0,0,-1,0,269.35664)" d="M600.2925 205.11354H592.2925"/>
<path transform="matrix(1,0,0,-1,0,269.35664)" stroke-width="1.5" stroke-linecap="butt" stroke-linejoin="round" fill="none" stroke="#000000" d="M600.2925 205.11354H592.2925"/>
</g>
<g clip-path="url(#clip_50)">
<path transform="matrix(1,0,0,-1,0,269.35664)" stroke-width="1.5" stroke-linecap="butt" stroke-linejoin="round" fill="none" stroke="#000000" d="M757.01986 183.01004V185.13462"/>
</g>
<g clip-path="url(#clip_51)">
<path transform="matrix(1,0,0,-1,0,269.35664)" d="M761.01986 183.01004H753.01986"/>
<path transform="matrix(1,0,0,-1,0,269.35664)" stroke-width="1.5" stroke-linecap="butt" stroke-linejoin="round" fill="none" stroke="#000000" d="M761.01986 183.01004H753.01986"/>
</g>
<g clip-path="url(#clip_52)">
<path transform="matrix(1,0,0,-1,0,269.35664)" d="M761.01986 185.13462H753.01986"/>
<path transform="matrix(1,0,0,-1,0,269.35664)" stroke-width="1.5" stroke-linecap="butt" stroke-linejoin="round" fill="none" stroke="#000000" d="M761.01986 185.13462H753.01986"/>
</g>
<g clip-path="url(#clip_53)">
<path transform="matrix(1,0,0,-1,0,269.35664)" stroke-width="1.5" stroke-linecap="butt" stroke-linejoin="round" fill="none" stroke="#000000" d="M917.7472 208.78214V210.97303"/>
</g>
<g clip-path="url(#clip_54)">
<path transform="matrix(1,0,0,-1,0,269.35664)" d="M921.7472 208.78214H913.7472"/>
<path transform="matrix(1,0,0,-1,0,269.35664)" stroke-width="1.5" stroke-linecap="butt" stroke-linejoin="round" fill="none" stroke="#000000" d="M921.7472 208.78214H913.7472"/>
</g>
<g clip-path="url(#clip_55)">
<path transform="matrix(1,0,0,-1,0,269.35664)" d="M921.7472 210.97303H913.7472"/>
<path transform="matrix(1,0,0,-1,0,269.35664)" stroke-width="1.5" stroke-linecap="butt" stroke-linejoin="round" fill="none" stroke="#000000" d="M921.7472 210.97303H913.7472"/>
</g>
<g clip-path="url(#clip_56)">
<path transform="matrix(1,0,0,-1,0,269.35664)" stroke-width="1.5" stroke-linecap="butt" stroke-linejoin="round" fill="none" stroke="#000000" d="M142.23775 202.43755V204.5847"/>
</g>
<g clip-path="url(#clip_57)">
<path transform="matrix(1,0,0,-1,0,269.35664)" d="M146.23775 202.43755H138.23775"/>
<path transform="matrix(1,0,0,-1,0,269.35664)" stroke-width="1.5" stroke-linecap="butt" stroke-linejoin="round" fill="none" stroke="#000000" d="M146.23775 202.43755H138.23775"/>
</g>
<g clip-path="url(#clip_58)">
<path transform="matrix(1,0,0,-1,0,269.35664)" d="M146.23775 204.5847H138.23775"/>
<path transform="matrix(1,0,0,-1,0,269.35664)" stroke-width="1.5" stroke-linecap="butt" stroke-linejoin="round" fill="none" stroke="#000000" d="M146.23775 204.5847H138.23775"/>
</g>
<g clip-path="url(#clip_59)">
<path transform="matrix(1,0,0,-1,0,269.35664)" stroke-width="1.5" stroke-linecap="butt" stroke-linejoin="round" fill="none" stroke="#000000" d="M302.9651 125.549518V125.549518"/>
</g>
<g clip-path="url(#clip_60)">
<path transform="matrix(1,0,0,-1,0,269.35664)" d="M306.9651 125.549518H298.9651"/>
<path transform="matrix(1,0,0,-1,0,269.35664)" stroke-width="1.5" stroke-linecap="butt" stroke-linejoin="round" fill="none" stroke="#000000" d="M306.9651 125.549518H298.9651"/>
</g>
<g clip-path="url(#clip_61)">
<path transform="matrix(1,0,0,-1,0,269.35664)" d="M306.9651 125.549518H298.9651"/>
<path transform="matrix(1,0,0,-1,0,269.35664)" stroke-width="1.5" stroke-linecap="butt" stroke-linejoin="round" fill="none" stroke="#000000" d="M306.9651 125.549518H298.9651"/>
</g>
<g clip-path="url(#clip_62)">
<path transform="matrix(1,0,0,-1,0,269.35664)" stroke-width="1.5" stroke-linecap="butt" stroke-linejoin="round" fill="none" stroke="#000000" d="M463.69245 78.53846V86.40286"/>
</g>
<g clip-path="url(#clip_63)">
<path transform="matrix(1,0,0,-1,0,269.35664)" d="M467.69245 78.53846H459.69245"/>
<path transform="matrix(1,0,0,-1,0,269.35664)" stroke-width="1.5" stroke-linecap="butt" stroke-linejoin="round" fill="none" stroke="#000000" d="M467.69245 78.53846H459.69245"/>
</g>
<g clip-path="url(#clip_64)">
<path transform="matrix(1,0,0,-1,0,269.35664)" d="M467.69245 86.40286H459.69245"/>
<path transform="matrix(1,0,0,-1,0,269.35664)" stroke-width="1.5" stroke-linecap="butt" stroke-linejoin="round" fill="none" stroke="#000000" d="M467.69245 86.40286H459.69245"/>
</g>
<g clip-path="url(#clip_65)">
<path transform="matrix(1,0,0,-1,0,269.35664)" stroke-width="1.5" stroke-linecap="butt" stroke-linejoin="round" fill="none" stroke="#000000" d="M624.4198 174.42743V181.8071"/>
</g>
<g clip-path="url(#clip_66)">
<path transform="matrix(1,0,0,-1,0,269.35664)" d="M628.4198 174.42743H620.4198"/>
<path transform="matrix(1,0,0,-1,0,269.35664)" stroke-width="1.5" stroke-linecap="butt" stroke-linejoin="round" fill="none" stroke="#000000" d="M628.4198 174.42743H620.4198"/>
</g>
<g clip-path="url(#clip_67)">
<path transform="matrix(1,0,0,-1,0,269.35664)" d="M628.4198 181.8071H620.4198"/>
<path transform="matrix(1,0,0,-1,0,269.35664)" stroke-width="1.5" stroke-linecap="butt" stroke-linejoin="round" fill="none" stroke="#000000" d="M628.4198 181.8071H620.4198"/>
</g>
<g clip-path="url(#clip_68)">
<path transform="matrix(1,0,0,-1,0,269.35664)" stroke-width="1.5" stroke-linecap="butt" stroke-linejoin="round" fill="none" stroke="#000000" d="M785.14718 154.90157V161.79137"/>
</g>
<g clip-path="url(#clip_69)">
<path transform="matrix(1,0,0,-1,0,269.35664)" d="M789.14718 154.90157H781.14718"/>
<path transform="matrix(1,0,0,-1,0,269.35664)" stroke-width="1.5" stroke-linecap="butt" stroke-linejoin="round" fill="none" stroke="#000000" d="M789.14718 154.90157H781.14718"/>
</g>
<g clip-path="url(#clip_70)">
<path transform="matrix(1,0,0,-1,0,269.35664)" d="M789.14718 161.79137H781.14718"/>
<path transform="matrix(1,0,0,-1,0,269.35664)" stroke-width="1.5" stroke-linecap="butt" stroke-linejoin="round" fill="none" stroke="#000000" d="M789.14718 161.79137H781.14718"/>
</g>
<g clip-path="url(#clip_71)">
<path transform="matrix(1,0,0,-1,0,269.35664)" stroke-width="1.5" stroke-linecap="butt" stroke-linejoin="round" fill="none" stroke="#000000" d="M945.8745 188.59818V188.59818"/>
</g>
<g clip-path="url(#clip_72)">
<path transform="matrix(1,0,0,-1,0,269.35664)" d="M949.8745 188.59818H941.8745"/>
<path transform="matrix(1,0,0,-1,0,269.35664)" stroke-width="1.5" stroke-linecap="butt" stroke-linejoin="round" fill="none" stroke="#000000" d="M949.8745 188.59818H941.8745"/>
</g>
<g clip-path="url(#clip_73)">
<path transform="matrix(1,0,0,-1,0,269.35664)" d="M949.8745 188.59818H941.8745"/>
<path transform="matrix(1,0,0,-1,0,269.35664)" stroke-width="1.5" stroke-linecap="butt" stroke-linejoin="round" fill="none" stroke="#000000" d="M949.8745 188.59818H941.8745"/>
</g>
<g clip-path="url(#clip_74)">
<path transform="matrix(1,0,0,-1,0,269.35664)" stroke-width="1.5" stroke-linecap="butt" stroke-linejoin="round" fill="none" stroke="#000000" d="M170.36504 200.23876V203.44084"/>
</g>
<g clip-path="url(#clip_75)">
<path transform="matrix(1,0,0,-1,0,269.35664)" d="M174.36504 200.23876H166.36504"/>
<path transform="matrix(1,0,0,-1,0,269.35664)" stroke-width="1.5" stroke-linecap="butt" stroke-linejoin="round" fill="none" stroke="#000000" d="M174.36504 200.23876H166.36504"/>
</g>
<g clip-path="url(#clip_76)">
<path transform="matrix(1,0,0,-1,0,269.35664)" d="M174.36504 203.44084H166.36504"/>
<path transform="matrix(1,0,0,-1,0,269.35664)" stroke-width="1.5" stroke-linecap="butt" stroke-linejoin="round" fill="none" stroke="#000000" d="M174.36504 203.44084H166.36504"/>
</g>
<g clip-path="url(#clip_77)">
<path transform="matrix(1,0,0,-1,0,269.35664)" stroke-width="1.5" stroke-linecap="butt" stroke-linejoin="round" fill="none" stroke="#000000" d="M331.09239 98.88054V102.76428"/>
</g>
<g clip-path="url(#clip_78)">
<path transform="matrix(1,0,0,-1,0,269.35664)" d="M335.09239 98.88054H327.09239"/>
<path transform="matrix(1,0,0,-1,0,269.35664)" stroke-width="1.5" stroke-linecap="butt" stroke-linejoin="round" fill="none" stroke="#000000" d="M335.09239 98.88054H327.09239"/>
</g>
<g clip-path="url(#clip_79)">
<path transform="matrix(1,0,0,-1,0,269.35664)" d="M335.09239 102.76428H327.09239"/>
<path transform="matrix(1,0,0,-1,0,269.35664)" stroke-width="1.5" stroke-linecap="butt" stroke-linejoin="round" fill="none" stroke="#000000" d="M335.09239 102.76428H327.09239"/>
</g>
<g clip-path="url(#clip_80)">
<path transform="matrix(1,0,0,-1,0,269.35664)" stroke-width="1.5" stroke-linecap="butt" stroke-linejoin="round" fill="none" stroke="#000000" d="M491.81974 64.520427V68.55611"/>
</g>
<g clip-path="url(#clip_81)">
<path transform="matrix(1,0,0,-1,0,269.35664)" d="M495.81974 64.520427H487.81974"/>
<path transform="matrix(1,0,0,-1,0,269.35664)" stroke-width="1.5" stroke-linecap="butt" stroke-linejoin="round" fill="none" stroke="#000000" d="M495.81974 64.520427H487.81974"/>
</g>
<g clip-path="url(#clip_82)">
<path transform="matrix(1,0,0,-1,0,269.35664)" d="M495.81974 68.55611H487.81974"/>
<path transform="matrix(1,0,0,-1,0,269.35664)" stroke-width="1.5" stroke-linecap="butt" stroke-linejoin="round" fill="none" stroke="#000000" d="M495.81974 68.55611H487.81974"/>
</g>
<g clip-path="url(#clip_83)">
<path transform="matrix(1,0,0,-1,0,269.35664)" stroke-width="1.5" stroke-linecap="butt" stroke-linejoin="round" fill="none" stroke="#000000" d="M652.54708 168.90677V168.90677"/>
</g>
<g clip-path="url(#clip_84)">
<path transform="matrix(1,0,0,-1,0,269.35664)" d="M656.54708 168.90677H648.54708"/>
<path transform="matrix(1,0,0,-1,0,269.35664)" stroke-width="1.5" stroke-linecap="butt" stroke-linejoin="round" fill="none" stroke="#000000" d="M656.54708 168.90677H648.54708"/>
</g>
<g clip-path="url(#clip_85)">
<path transform="matrix(1,0,0,-1,0,269.35664)" d="M656.54708 168.90677H648.54708"/>
<path transform="matrix(1,0,0,-1,0,269.35664)" stroke-width="1.5" stroke-linecap="butt" stroke-linejoin="round" fill="none" stroke="#000000" d="M656.54708 168.90677H648.54708"/>
</g>
<g clip-path="url(#clip_86)">
<path transform="matrix(1,0,0,-1,0,269.35664)" stroke-width="1.5" stroke-linecap="butt" stroke-linejoin="round" fill="none" stroke="#000000" d="M813.2744 152.52124V155.59642"/>
</g>
<g clip-path="url(#clip_87)">
<path transform="matrix(1,0,0,-1,0,269.35664)" d="M817.2744 152.52124H809.2744"/>
<path transform="matrix(1,0,0,-1,0,269.35664)" stroke-width="1.5" stroke-linecap="butt" stroke-linejoin="round" fill="none" stroke="#000000" d="M817.2744 152.52124H809.2744"/>
</g>
<g clip-path="url(#clip_88)">
<path transform="matrix(1,0,0,-1,0,269.35664)" d="M817.2744 155.59642H809.2744"/>
<path transform="matrix(1,0,0,-1,0,269.35664)" stroke-width="1.5" stroke-linecap="butt" stroke-linejoin="round" fill="none" stroke="#000000" d="M817.2744 155.59642H809.2744"/>
</g>
<g clip-path="url(#clip_89)">
<path transform="matrix(1,0,0,-1,0,269.35664)" stroke-width="1.5" stroke-linecap="butt" stroke-linejoin="round" fill="none" stroke="#000000" d="M974.0018 185.62541V189.0301"/>
</g>
<g clip-path="url(#clip_90)">
<path transform="matrix(1,0,0,-1,0,269.35664)" d="M978.0018 185.62541H970.0018"/>
<path transform="matrix(1,0,0,-1,0,269.35664)" stroke-width="1.5" stroke-linecap="butt" stroke-linejoin="round" fill="none" stroke="#000000" d="M978.0018 185.62541H970.0018"/>
</g>
<g clip-path="url(#clip_91)">
<path transform="matrix(1,0,0,-1,0,269.35664)" d="M978.0018 189.0301H970.0018"/>
<path transform="matrix(1,0,0,-1,0,269.35664)" stroke-width="1.5" stroke-linecap="butt" stroke-linejoin="round" fill="none" stroke="#000000" d="M978.0018 189.0301H970.0018"/>
</g>
<g clip-path="url(#clip_92)">
<path transform="matrix(1,0,0,-1,0,269.35664)" stroke-width="1.5" stroke-linecap="butt" stroke-linejoin="round" fill="none" stroke="#000000" d="M198.49233 192.76178V196.20177"/>
</g>
<g clip-path="url(#clip_93)">
<path transform="matrix(1,0,0,-1,0,269.35664)" d="M202.49233 192.76178H194.49233"/>
<path transform="matrix(1,0,0,-1,0,269.35664)" stroke-width="1.5" stroke-linecap="butt" stroke-linejoin="round" fill="none" stroke="#000000" d="M202.49233 192.76178H194.49233"/>
</g>
<g clip-path="url(#clip_94)">
<path transform="matrix(1,0,0,-1,0,269.35664)" d="M202.49233 196.20177H194.49233"/>
<path transform="matrix(1,0,0,-1,0,269.35664)" stroke-width="1.5" stroke-linecap="butt" stroke-linejoin="round" fill="none" stroke="#000000" d="M202.49233 196.20177H194.49233"/>
</g>
<g clip-path="url(#clip_95)">
<path transform="matrix(1,0,0,-1,0,269.35664)" stroke-width="1.5" stroke-linecap="butt" stroke-linejoin="round" fill="none" stroke="#000000" d="M359.21968 102.44038V102.44038"/>
</g>
<g clip-path="url(#clip_96)">
<path transform="matrix(1,0,0,-1,0,269.35664)" d="M363.21968 102.44038H355.21968"/>
<path transform="matrix(1,0,0,-1,0,269.35664)" stroke-width="1.5" stroke-linecap="butt" stroke-linejoin="round" fill="none" stroke="#000000" d="M363.21968 102.44038H355.21968"/>
</g>
<g clip-path="url(#clip_97)">
<path transform="matrix(1,0,0,-1,0,269.35664)" d="M363.21968 102.44038H355.21968"/>
<path transform="matrix(1,0,0,-1,0,269.35664)" stroke-width="1.5" stroke-linecap="butt" stroke-linejoin="round" fill="none" stroke="#000000" d="M363.21968 102.44038H355.21968"/>
</g>
<g clip-path="url(#clip_98)">
<path transform="matrix(1,0,0,-1,0,269.35664)" stroke-width="1.5" stroke-linecap="butt" stroke-linejoin="round" fill="none" stroke="#000000" d="M519.947 61.88249V64.91553"/>
</g>
<g clip-path="url(#clip_99)">
<path transform="matrix(1,0,0,-1,0,269.35664)" d="M523.947 61.88249H515.947"/>
<path transform="matrix(1,0,0,-1,0,269.35664)" stroke-width="1.5" stroke-linecap="butt" stroke-linejoin="round" fill="none" stroke="#000000" d="M523.947 61.88249H515.947"/>
</g>
<g clip-path="url(#clip_100)">
<path transform="matrix(1,0,0,-1,0,269.35664)" d="M523.947 64.91553H515.947"/>
<path transform="matrix(1,0,0,-1,0,269.35664)" stroke-width="1.5" stroke-linecap="butt" stroke-linejoin="round" fill="none" stroke="#000000" d="M523.947 64.91553H515.947"/>
</g>
<g clip-path="url(#clip_101)">
<path transform="matrix(1,0,0,-1,0,269.35664)" stroke-width="1.5" stroke-linecap="butt" stroke-linejoin="round" fill="none" stroke="#000000" d="M680.6744 169.13823V172.80417"/>
</g>
<g clip-path="url(#clip_102)">
<path transform="matrix(1,0,0,-1,0,269.35664)" d="M684.6744 169.13823H676.6744"/>
<path transform="matrix(1,0,0,-1,0,269.35664)" stroke-width="1.5" stroke-linecap="butt" stroke-linejoin="round" fill="none" stroke="#000000" d="M684.6744 169.13823H676.6744"/>
</g>
<g clip-path="url(#clip_103)">
<path transform="matrix(1,0,0,-1,0,269.35664)" d="M684.6744 172.80417H676.6744"/>
<path transform="matrix(1,0,0,-1,0,269.35664)" stroke-width="1.5" stroke-linecap="butt" stroke-linejoin="round" fill="none" stroke="#000000" d="M684.6744 172.80417H676.6744"/>
</g>
<g clip-path="url(#clip_104)">
<path transform="matrix(1,0,0,-1,0,269.35664)" stroke-width="1.5" stroke-linecap="butt" stroke-linejoin="round" fill="none" stroke="#000000" d="M841.40176 150.92498V154.6201"/>
</g>
<g clip-path="url(#clip_105)">
<path transform="matrix(1,0,0,-1,0,269.35664)" d="M845.40176 150.92498H837.40176"/>
<path transform="matrix(1,0,0,-1,0,269.35664)" stroke-width="1.5" stroke-linecap="butt" stroke-linejoin="round" fill="none" stroke="#000000" d="M845.40176 150.92498H837.40176"/>
</g>
<g clip-path="url(#clip_106)">
<path transform="matrix(1,0,0,-1,0,269.35664)" d="M845.40176 154.6201H837.40176"/>
<path transform="matrix(1,0,0,-1,0,269.35664)" stroke-width="1.5" stroke-linecap="butt" stroke-linejoin="round" fill="none" stroke="#000000" d="M845.40176 154.6201H837.40176"/>
</g>
<g clip-path="url(#clip_107)">
<path transform="matrix(1,0,0,-1,0,269.35664)" stroke-width="1.5" stroke-linecap="butt" stroke-linejoin="round" fill="none" stroke="#000000" d="M1002.1291 185.97795V185.97795"/>
</g>
<g clip-path="url(#clip_108)">
<path transform="matrix(1,0,0,-1,0,269.35664)" d="M1006.1291 185.97795H998.1291"/>
<path transform="matrix(1,0,0,-1,0,269.35664)" stroke-width="1.5" stroke-linecap="butt" stroke-linejoin="round" fill="none" stroke="#000000" d="M1006.1291 185.97795H998.1291"/>
</g>
<g clip-path="url(#clip_109)">
<path transform="matrix(1,0,0,-1,0,269.35664)" d="M1006.1291 185.97795H998.1291"/>
<path transform="matrix(1,0,0,-1,0,269.35664)" stroke-width="1.5" stroke-linecap="butt" stroke-linejoin="round" fill="none" stroke="#000000" d="M1006.1291 185.97795H998.1291"/>
</g>
</svg>
